  0
SECTION
  2
HEADER
  9
$ACADVER
  1
AC1014
  9
$ACADMAINTVER
 70
     9
  9
$DWGCODEPAGE
  3
ANSI_1252
  9
$INSBASE
 10
0.0
 20
0.0
 30
0.0
  9
$EXTMIN
 10
0.0
 20
0.000255
 30
0.0
  9
$EXTMAX
 10
179.964029
 20
205.000015
 30
0.0
  9
$LIMMIN
 10
0.0
 20
0.0
  9
$LIMMAX
 10
12.0
 20
9.0
  9
$ORTHOMODE
 70
     0
  9
$REGENMODE
 70
     1
  9
$FILLMODE
 70
     1
  9
$QTEXTMODE
 70
     0
  9
$MIRRTEXT
 70
     1
  9
$DRAGMODE
 70
     2
  9
$LTSCALE
 40
1.0
  9
$OSMODE
 70
   511
  9
$ATTMODE
 70
     1
  9
$TEXTSIZE
 40
2.5
  9
$TRACEWID
 40
0.05
  9
$TEXTSTYLE
  7
STANDARD
  9
$CLAYER
  8
0
  9
$CELTYPE
  6
BYBLOCK
  9
$CECOLOR
 62
   256
  9
$CELTSCALE
 40
1.0
  9
$DELOBJ
 70
     1
  9
$DISPSILH
 70
     0
  9
$DIMSCALE
 40
1.0
  9
$DIMASZ
 40
0.18
  9
$DIMEXO
 40
0.0625
  9
$DIMDLI
 40
0.38
  9
$DIMRND
 40
0.0
  9
$DIMDLE
 40
0.0
  9
$DIMEXE
 40
0.18
  9
$DIMTP
 40
0.0
  9
$DIMTM
 40
0.0
  9
$DIMTXT
 40
0.18
  9
$DIMCEN
 40
0.09
  9
$DIMTSZ
 40
0.0
  9
$DIMTOL
 70
     0
  9
$DIMLIM
 70
     0
  9
$DIMTIH
 70
     1
  9
$DIMTOH
 70
     1
  9
$DIMSE1
 70
     0
  9
$DIMSE2
 70
     0
  9
$DIMTAD
 70
     0
  9
$DIMZIN
 70
     0
  9
$DIMBLK
  1

  9
$DIMASO
 70
     1
  9
$DIMSHO
 70
     1
  9
$DIMPOST
  1

  9
$DIMAPOST
  1

  9
$DIMALT
 70
     0
  9
$DIMALTD
 70
     2
  9
$DIMALTF
 40
25.4
  9
$DIMLFAC
 40
1.0
  9
$DIMTOFL
 70
     0
  9
$DIMTVP
 40
0.0
  9
$DIMTIX
 70
     0
  9
$DIMSOXD
 70
     0
  9
$DIMSAH
 70
     0
  9
$DIMBLK1
  1

  9
$DIMBLK2
  1

  9
$DIMSTYLE
  2
ISO-25
  9
$DIMCLRD
 70
     0
  9
$DIMCLRE
 70
     0
  9
$DIMCLRT
 70
     0
  9
$DIMTFAC
 40
1.0
  9
$DIMGAP
 40
0.09
  9
$DIMJUST
 70
     0
  9
$DIMSD1
 70
     0
  9
$DIMSD2
 70
     0
  9
$DIMTOLJ
 70
     1
  9
$DIMTZIN
 70
     0
  9
$DIMALTZ
 70
     0
  9
$DIMALTTZ
 70
     0
  9
$DIMFIT
 70
     5
  9
$DIMUPT
 70
     0
  9
$DIMUNIT
 70
     2
  9
$DIMDEC
 70
     4
  9
$DIMTDEC
 70
     4
  9
$DIMALTU
 70
     2
  9
$DIMALTTD
 70
     2
  9
$DIMTXSTY
  7
STANDARD
  9
$DIMAUNIT
 70
     0
  9
$LUNITS
 70
     2
  9
$LUPREC
 70
     4
  9
$SKETCHINC
 40
0.1
  9
$FILLETRAD
 40
0.5
  9
$AUNITS
 70
     0
  9
$AUPREC
 70
     0
  9
$MENU
  1
.
  9
$ELEVATION
 40
0.0
  9
$PELEVATION
 40
0.0
  9
$THICKNESS
 40
0.0
  9
$LIMCHECK
 70
     0
  9
$CHAMFERA
 40
0.0
  9
$CHAMFERB
 40
0.0
  9
$CHAMFERC
 40
0.0
  9
$CHAMFERD
 40
0.0
  9
$SKPOLY
 70
     0
  9
$TDCREATE
 40
0.0
  9
$TDUPDATE
 40
2457220.527754629
  9
$TDINDWG
 40
0.0
  9
$TDUSRTIMER
 40
2457220.110925926
  9
$USRTIMER
 70
     1
  9
$ANGBASE
 50
0.0
  9
$ANGDIR
 70
     0
  9
$PDMODE
 70
     0
  9
$PDSIZE
 40
0.0
  9
$PLINEWID
 40
0.0
  9
$COORDS
 70
     1
  9
$SPLFRAME
 70
     0
  9
$SPLINETYPE
 70
     6
  9
$SPLINESEGS
 70
     8
  9
$ATTDIA
 70
     0
  9
$ATTREQ
 70
     1
  9
$HANDLING
 70
     1
  9
$HANDSEED
  5
10096
  9
$SURFTAB1
 70
     6
  9
$SURFTAB2
 70
     6
  9
$SURFTYPE
 70
     6
  9
$SURFU
 70
     6
  9
$SURFV
 70
     6
  9
$UCSNAME
  2

  9
$UCSORG
 10
0.0
 20
0.0
 30
0.0
  9
$UCSXDIR
 10
1.0
 20
0.0
 30
0.0
  9
$UCSYDIR
 10
0.0
 20
1.0
 30
0.0
  9
$PUCSNAME
  2

  9
$PUCSORG
 10
0.0
 20
0.0
 30
0.0
  9
$PUCSXDIR
 10
1.0
 20
0.0
 30
0.0
  9
$PUCSYDIR
 10
0.0
 20
1.0
 30
0.0
  9
$USERI1
 70
     0
  9
$USERI2
 70
     0
  9
$USERI3
 70
     0
  9
$USERI4
 70
     0
  9
$USERI5
 70
     0
  9
$USERR1
 40
0.0
  9
$USERR2
 40
0.0
  9
$USERR3
 40
0.0
  9
$USERR4
 40
0.0
  9
$USERR5
 40
0.0
  9
$WORLDVIEW
 70
     1
  9
$SHADEDGE
 70
     3
  9
$SHADEDIF
 70
    70
  9
$TILEMODE
 70
     1
  9
$MAXACTVP
 70
    64
  9
$PINSBASE
 10
0.0
 20
0.0
 30
0.0
  9
$PLIMCHECK
 70
     0
  9
$PEXTMIN
 10
1.000000000000000E+20
 20
1.000000000000000E+20
 30
1.000000000000000E+20
  9
$PEXTMAX
 10
-1.000000000000000E+20
 20
-1.000000000000000E+20
 30
-1.000000000000000E+20
  9
$PLIMMIN
 10
0.0
 20
0.0
  9
$PLIMMAX
 10
0.0
 20
0.0
  9
$UNITMODE
 70
     0
  9
$VISRETAIN
 70
     1
  9
$PLINEGEN
 70
     0
  9
$PSLTSCALE
 70
     1
  9
$TREEDEPTH
 70
  3020
  9
$PICKSTYLE
 70
     1
  9
$CMLSTYLE
  2

  9
$CMLJUST
 70
     0
  9
$CMLSCALE
 40
1.0
  9
$PROXYGRAPHICS
 70
     1
  9
$MEASUREMENT
 70
     1
  0
ENDSEC
  0
SECTION
  2
CLASSES
  0
CLASS
  1
SCALE
  2
AcDbScale
  3
ObjectDBX Classes
 90
     1153
280
     0
281
     0
  0
CLASS
  1
VISUALSTYLE
  2
AcDbVisualStyle
  3
ObjectDBX Classes
 90
     4095
280
     0
281
     0
  0
CLASS
  1
MATERIAL
  2
AcDbMaterial
  3
ObjectDBX Classes
 90
     1153
280
     0
281
     0
  0
CLASS
  1
TABLESTYLE
  2
AcDbTableStyle
  3
ObjectDBX Classes
 90
     4095
280
     0
281
     0
  0
CLASS
  1
MLEADERSTYLE
  2
AcDbMLeaderStyle
  3
ACDB_MLEADERSTYLE_CLASS
 90
     4095
280
     0
281
     0
  0
CLASS
  1
SUN
  2
AcDbSun
  3
SCENEOE
 90
     1153
280
     0
281
     0
  0
CLASS
  1
RASTERVARIABLES
  2
AcDbRasterVariables
  3
ISM
 90
        0
280
     0
281
     0
  0
CLASS
  1
DICTIONARYVAR
  2
AcDbDictionaryVar
  3
ObjectDBX Classes
 90
        0
280
     0
281
     0
  0
CLASS
  1
CELLSTYLEMAP
  2
AcDbCellStyleMap
  3
ObjectDBX Classes
 90
     1152
280
     0
281
     0
  0
CLASS
  1
XRECORD
  2
AcDbXrecord
  3
ObjectDBX Classes
 90
        0
280
     0
281
     0
  0
CLASS
  1
LWPOLYLINE
  2
AcDbPolyline
  3
ObjectDBX Classes
 90
        0
280
     0
281
     1
  0
CLASS
  1
HATCH
  2
AcDbHatch
  3
ObjectDBX Classes
 90
        0
280
     0
281
     1
  0
ENDSEC
  0
SECTION
  2
TABLES
  0
TABLE
  2
VPORT
  5
8
330
0
100
AcDbSymbolTable
 70
     1
  0
VPORT
  5
2E
330
8
100
AcDbSymbolTableRecord
100
AcDbViewportTableRecord
  2
*ACTIVE
 70
     0
 10
0.0
 20
0.0
 11
1.0
 21
1.0
 12
-13.2185791078864
 22
124.5198418280057
 13
0.0
 23
0.0
 14
10.0
 24
10.0
 15
10.0
 25
10.0
 16
0.0
 26
0.0
 36
1.0
 17
0.0
 27
0.0
 37
0.0
 40
111.73888
 41
1.708791208791209
 42
50.0
 43
0.0
 44
0.0
 50
0.0
 51
0.0
 71
    16
 72
   100
 73
     1
 74
     3
 75
     0
 76
     0
 77
     0
 78
     0
  0
ENDTAB
  0
TABLE
  2
LTYPE
  5
5
330
0
100
AcDbSymbolTable
 70
     1
  0
LTYPE
  5
14
330
5
100
AcDbSymbolTableRecord
100
AcDbLinetypeTableRecord
  2
BYBLOCK
 70
     0
  3

 72
    65
 73
     0
 40
0.0
  0
LTYPE
  5
15
330
5
100
AcDbSymbolTableRecord
100
AcDbLinetypeTableRecord
  2
BYLAYER
 70
     0
  3

 72
    65
 73
     0
 40
0.0
  0
LTYPE
  5
16
330
5
100
AcDbSymbolTableRecord
100
AcDbLinetypeTableRecord
  2
CONTINUOUS
 70
     0
  3
Solid line
 72
    65
 73
     0
 40
0.0
  0
ENDTAB
  0
TABLE
  2
LAYER
  5
2
102
{ACAD_XDICTIONARY
360
10077
102
}
330
0
100
AcDbSymbolTable
 70
    11
  0
LAYER
  5
50
330
2
100
AcDbSymbolTableRecord
100
AcDbLayerTableRecord
  2
0
 70
     0
 62
     7
  6
CONTINUOUS
  0
LAYER
  5
51
330
2
100
AcDbSymbolTableRecord
100
AcDbLayerTableRecord
  2
BASE_PLATE
 70
     0
 62
     7
  6
CONTINUOUS
  0
LAYER
  5
52
330
2
100
AcDbSymbolTableRecord
100
AcDbLayerTableRecord
  2
BUMPER_PLATES
 70
     0
 62
     7
  6
CONTINUOUS
  0
LAYER
  5
53
330
2
100
AcDbSymbolTableRecord
100
AcDbLayerTableRecord
  2
WHEELS
 70
     0
 62
     7
  6
CONTINUOUS
  0
LAYER
  5
54
330
2
100
AcDbSymbolTableRecord
100
AcDbLayerTableRecord
  2
ARDUINO
 70
     0
 62
     7
  6
CONTINUOUS
  0
LAYER
  5
55
330
2
100
AcDbSymbolTableRecord
100
AcDbLayerTableRecord
  2
BREADBOARD
 70
     0
 62
     7
  6
CONTINUOUS
  0
LAYER
  5
56
330
2
100
AcDbSymbolTableRecord
100
AcDbLayerTableRecord
  2
SERVOS
 70
     0
 62
     7
  6
CONTINUOUS
  0
LAYER
  5
57
330
2
100
AcDbSymbolTableRecord
100
AcDbLayerTableRecord
  2
BATTERY
 70
     0
 62
     7
  6
CONTINUOUS
  0
LAYER
  5
58
330
2
100
AcDbSymbolTableRecord
100
AcDbLayerTableRecord
  2
LEOSTICK
 70
     0
 62
     7
  6
CONTINUOUS
  0
LAYER
  5
59
330
2
100
AcDbSymbolTableRecord
100
AcDbLayerTableRecord
  2
ADDITIONAL_TEXT
 70
     0
 62
     7
  6
CONTINUOUS
  0
LAYER
  5
5A
330
2
100
AcDbSymbolTableRecord
100
AcDbLayerTableRecord
  2
SPARE
 70
     0
 62
     7
  6
CONTINUOUS
  0
ENDTAB
  0
TABLE
  2
STYLE
  5
3
330
0
100
AcDbSymbolTable
 70
     1
  0
STYLE
  5
11
330
3
100
AcDbSymbolTableRecord
100
AcDbTextStyleTableRecord
  2
STANDARD
 70
     0
 40
0.0
 41
1.0
 50
0.0
 71
     0
 42
2.5
  3
txt
  4

  0
ENDTAB
  0
TABLE
  2
VIEW
  5
6
330
0
100
AcDbSymbolTable
 70
     0
  0
ENDTAB
  0
TABLE
  2
UCS
  5
7
330
0
100
AcDbSymbolTable
 70
     0
  0
ENDTAB
  0
TABLE
  2
APPID
  5
9
330
0
100
AcDbSymbolTable
 70
     1
  0
APPID
  5
12
330
9
100
AcDbSymbolTableRecord
100
AcDbRegAppTableRecord
  2
ACAD
 70
     0
  0
ENDTAB
  0
TABLE
  2
DIMSTYLE
  5
A
330
0
100
AcDbSymbolTable
 70
     1
  0
DIMSTYLE
105
27
330
A
100
AcDbSymbolTableRecord
100
AcDbDimStyleTableRecord
  2
ISO-25
 70
     0
  3

  4

  5

  6

  7

 40
1.0
 41
2.5
 42
0.625
 43
3.75
 44
1.25
 45
0.0
 46
0.0
 47
0.0
 48
0.0
140
2.5
141
2.5
142
0.0
143
0.03937007874016
144
1.0
145
0.0
146
1.0
147
0.625
 71
     0
 72
     0
 73
     0
 74
     0
 75
     0
 76
     0
 77
     1
 78
     8
170
     0
171
     3
172
     1
173
     0
174
     0
175
     0
176
     0
177
     0
178
     0
270
     2
271
     2
272
     2
273
     2
274
     3
340
11
275
     0
280
     0
281
     0
282
     0
283
     0
284
     8
285
     0
286
     0
287
     3
288
     0
  0
ENDTAB
  0
TABLE
  2
BLOCK_RECORD
  5
1
330
0
100
AcDbSymbolTable
 70
     0
  0
BLOCK_RECORD
  5
1F
330
1
100
AcDbSymbolTableRecord
100
AcDbBlockTableRecord
  2
*MODEL_SPACE
  0
BLOCK_RECORD
  5
1B
330
1
100
AcDbSymbolTableRecord
100
AcDbBlockTableRecord
  2
*PAPER_SPACE
  0
ENDTAB
  0
ENDSEC
  0
SECTION
  2
BLOCKS
  0
BLOCK
  5
20
330
1F
100
AcDbEntity
  8
0
100
AcDbBlockBegin
  2
*MODEL_SPACE
 70
     0
 10
0.0
 20
0.0
 30
0.0
  3
*MODEL_SPACE
  1

  0
ENDBLK
  5
21
330
1F
100
AcDbEntity
  8
0
100
AcDbBlockEnd
  0
BLOCK
  5
1C
330
1B
100
AcDbEntity
 67
     1
  8
0
100
AcDbBlockBegin
  2
*PAPER_SPACE
 70
     0
 10
0.0
 20
0.0
 30
0.0
  3
*PAPER_SPACE
  1

  0
ENDBLK
  5
1D
330
1B
100
AcDbEntity
 67
     1
  8
0
100
AcDbBlockEnd
  0
ENDSEC
  0
SECTION
  2
ENTITIES
  0
LINE
  5
100
330
1F
100
AcDbEntity
  8
BASE_PLATE
 62
     7
100
AcDbLine
 10
0.017639
 20
159.999853
 30
0.0
 11
0.017639
 21
4.999766
 31
0.0
  0
LINE
  5
101
330
1F
100
AcDbEntity
  8
BASE_PLATE
 62
     7
100
AcDbLine
 10
0.017639
 20
4.999766
 30
0.0
 11
5.000074
 21
4.999766
 31
0.0
  0
LINE
  5
102
330
1F
100
AcDbEntity
  8
BASE_PLATE
 62
     7
100
AcDbLine
 10
5.000074
 20
4.999766
 30
0.0
 11
5.000074
 21
0.000255
 31
0.0
  0
LINE
  5
103
330
1F
100
AcDbEntity
  8
BASE_PLATE
 62
     7
100
AcDbLine
 10
5.000074
 20
0.000255
 30
0.0
 11
19.999744
 21
0.000255
 31
0.0
  0
LINE
  5
104
330
1F
100
AcDbEntity
  8
BASE_PLATE
 62
     7
100
AcDbLine
 10
19.999744
 20
0.000255
 30
0.0
 11
19.999744
 21
4.999766
 31
0.0
  0
LINE
  5
105
330
1F
100
AcDbEntity
  8
BASE_PLATE
 62
     7
100
AcDbLine
 10
19.999744
 20
4.999766
 30
0.0
 11
47.499874
 21
4.999766
 31
0.0
  0
LINE
  5
106
330
1F
100
AcDbEntity
  8
BASE_PLATE
 62
     7
100
AcDbLine
 10
47.499874
 20
4.999766
 30
0.0
 11
47.499874
 21
0.000255
 31
0.0
  0
LINE
  5
107
330
1F
100
AcDbEntity
  8
BASE_PLATE
 62
     7
100
AcDbLine
 10
47.499874
 20
0.000255
 30
0.0
 11
62.500095
 21
0.000255
 31
0.0
  0
LINE
  5
108
330
1F
100
AcDbEntity
  8
BASE_PLATE
 62
     7
100
AcDbLine
 10
62.500095
 20
0.000255
 30
0.0
 11
62.500095
 21
4.999766
 31
0.0
  0
LINE
  5
109
330
1F
100
AcDbEntity
  8
BASE_PLATE
 62
     7
100
AcDbLine
 10
62.500095
 20
4.999766
 30
0.0
 11
90.000226
 21
4.999766
 31
0.0
  0
LINE
  5
10A
330
1F
100
AcDbEntity
  8
BASE_PLATE
 62
     7
100
AcDbLine
 10
90.000226
 20
4.999766
 30
0.0
 11
90.000226
 21
0.000255
 31
0.0
  0
LINE
  5
10B
330
1F
100
AcDbEntity
  8
BASE_PLATE
 62
     7
100
AcDbLine
 10
90.000226
 20
0.000255
 30
0.0
 11
104.999897
 21
0.000255
 31
0.0
  0
LINE
  5
10C
330
1F
100
AcDbEntity
  8
BASE_PLATE
 62
     7
100
AcDbLine
 10
104.999897
 20
0.000255
 30
0.0
 11
104.999897
 21
4.999766
 31
0.0
  0
LINE
  5
10D
330
1F
100
AcDbEntity
  8
BASE_PLATE
 62
     7
100
AcDbLine
 10
104.999897
 20
4.999766
 30
0.0
 11
110.022569
 21
4.999766
 31
0.0
  0
LINE
  5
10E
330
1F
100
AcDbEntity
  8
BASE_PLATE
 62
     7
100
AcDbLine
 10
110.022569
 20
4.999766
 30
0.0
 11
110.022569
 21
159.999853
 31
0.0
  0
LINE
  5
10F
330
1F
100
AcDbEntity
  8
BASE_PLATE
 62
     7
100
AcDbLine
 10
110.022569
 20
159.999853
 30
0.0
 11
0.017639
 21
159.999853
 31
0.0
  0
LINE
  5
110
330
1F
100
AcDbEntity
  8
BASE_PLATE
 62
     7
100
AcDbLine
 10
52.502153
 20
155.200972
 30
0.0
 11
57.502778
 21
155.200972
 31
0.0
  0
LINE
  5
111
330
1F
100
AcDbEntity
  8
BASE_PLATE
 62
     7
100
AcDbLine
 10
57.502778
 20
155.200972
 30
0.0
 11
57.502778
 21
150.217986
 31
0.0
  0
LINE
  5
112
330
1F
100
AcDbEntity
  8
BASE_PLATE
 62
     7
100
AcDbLine
 10
57.502778
 20
150.217986
 30
0.0
 11
52.502153
 21
150.217986
 31
0.0
  0
LINE
  5
113
330
1F
100
AcDbEntity
  8
BASE_PLATE
 62
     7
100
AcDbLine
 10
52.502153
 20
150.217986
 30
0.0
 11
52.502153
 21
155.200972
 31
0.0
  0
LINE
  5
114
330
1F
100
AcDbEntity
  8
BASE_PLATE
 62
     7
100
AcDbLine
 10
23.001111
 20
150.183259
 30
0.0
 11
23.001111
 21
145.216811
 31
0.0
  0
LINE
  5
115
330
1F
100
AcDbEntity
  8
BASE_PLATE
 62
     7
100
AcDbLine
 10
23.001111
 20
145.216811
 30
0.0
 11
18.035764
 21
145.217375
 31
0.0
  0
LINE
  5
116
330
1F
100
AcDbEntity
  8
BASE_PLATE
 62
     7
100
AcDbLine
 10
18.035764
 20
145.217375
 30
0.0
 11
18.035764
 21
150.182722
 31
0.0
  0
LINE
  5
117
330
1F
100
AcDbEntity
  8
BASE_PLATE
 62
     7
100
AcDbLine
 10
18.035764
 20
150.182722
 30
0.0
 11
23.001111
 21
150.183259
 31
0.0
  0
LINE
  5
118
330
1F
100
AcDbEntity
  8
BASE_PLATE
 62
     7
100
AcDbLine
 10
100.038958
 20
150.183259
 30
0.0
 11
105.004306
 21
150.183259
 31
0.0
  0
LINE
  5
119
330
1F
100
AcDbEntity
  8
BASE_PLATE
 62
     7
100
AcDbLine
 10
105.004306
 20
150.183259
 30
0.0
 11
105.004306
 21
145.216811
 31
0.0
  0
LINE
  5
11A
330
1F
100
AcDbEntity
  8
BASE_PLATE
 62
     7
100
AcDbLine
 10
105.004306
 20
145.216811
 30
0.0
 11
100.038958
 21
145.216811
 31
0.0
  0
LINE
  5
11B
330
1F
100
AcDbEntity
  8
BASE_PLATE
 62
     7
100
AcDbLine
 10
100.038958
 20
145.216811
 30
0.0
 11
100.038958
 21
150.183259
 31
0.0
  0
LINE
  5
11C
330
1F
100
AcDbEntity
  8
BASE_PLATE
 62
     7
100
AcDbLine
 10
5.035903
 20
150.182694
 30
0.0
 11
10.00125
 21
150.182694
 31
0.0
  0
LINE
  5
11D
330
1F
100
AcDbEntity
  8
BASE_PLATE
 62
     7
100
AcDbLine
 10
10.00125
 20
150.182694
 30
0.0
 11
10.00125
 21
145.217347
 31
0.0
  0
LINE
  5
11E
330
1F
100
AcDbEntity
  8
BASE_PLATE
 62
     7
100
AcDbLine
 10
10.00125
 20
145.217347
 30
0.0
 11
5.035903
 21
145.217347
 31
0.0
  0
LINE
  5
11F
330
1F
100
AcDbEntity
  8
BASE_PLATE
 62
     7
100
AcDbLine
 10
5.035903
 20
145.217347
 30
0.0
 11
5.035903
 21
150.182694
 31
0.0
  0
LINE
  5
120
330
1F
100
AcDbEntity
  8
BASE_PLATE
 62
     7
100
AcDbLine
 10
87.039097
 20
150.182694
 30
0.0
 11
92.004444
 21
150.182694
 31
0.0
  0
LINE
  5
121
330
1F
100
AcDbEntity
  8
BASE_PLATE
 62
     7
100
AcDbLine
 10
92.004444
 20
150.182694
 30
0.0
 11
92.004444
 21
145.217347
 31
0.0
  0
LINE
  5
122
330
1F
100
AcDbEntity
  8
BASE_PLATE
 62
     7
100
AcDbLine
 10
92.004444
 20
145.217347
 30
0.0
 11
87.039097
 21
145.217347
 31
0.0
  0
LINE
  5
123
330
1F
100
AcDbEntity
  8
BASE_PLATE
 62
     7
100
AcDbLine
 10
87.039097
 20
145.217347
 30
0.0
 11
87.039097
 21
150.182694
 31
0.0
  0
LINE
  5
124
330
1F
100
AcDbEntity
  8
BASE_PLATE
 62
     7
100
AcDbLine
 10
52.551762
 20
144.233978
 30
0.0
 11
57.452065
 21
144.233978
 31
0.0
  0
LINE
  5
125
330
1F
100
AcDbEntity
  8
BASE_PLATE
 62
     7
100
AcDbLine
 10
57.452065
 20
144.233978
 30
0.0
 11
57.452065
 21
139.333674
 31
0.0
  0
LINE
  5
126
330
1F
100
AcDbEntity
  8
BASE_PLATE
 62
     7
100
AcDbLine
 10
57.452065
 20
139.333674
 30
0.0
 11
52.551762
 21
139.333674
 31
0.0
  0
LINE
  5
127
330
1F
100
AcDbEntity
  8
BASE_PLATE
 62
     7
100
AcDbLine
 10
52.551762
 20
139.333674
 30
0.0
 11
52.551762
 21
144.233978
 31
0.0
  0
SPLINE
  5
128
330
1F
100
AcDbEntity
  8
BASE_PLATE
 62
     7
100
AcDbSpline
210
0.0
220
0.0
230
1.0
 70
     8
 71
     3
 72
     8
 73
     4
 74
     0
 42
0.000000001
 43
0.0000001
 40
0.0
 40
0.0
 40
0.0
 40
0.0
 40
1.0
 40
1.0
 40
1.0
 40
1.0
 10
15.266458
 20
140.895833
 30
0.0
 10
15.316287
 20
140.900885
 30
0.0
 10
15.36522
 20
140.895833
 30
0.0
 10
15.416389
 20
140.895833
 30
0.0
  0
SPLINE
  5
129
330
1F
100
AcDbEntity
  8
BASE_PLATE
 62
     7
100
AcDbSpline
210
0.0
220
0.0
230
1.0
 70
     8
 71
     3
 72
     8
 73
     4
 74
     0
 42
0.000000001
 43
0.0000001
 40
0.0
 40
0.0
 40
0.0
 40
0.0
 40
1.0
 40
1.0
 40
1.0
 40
1.0
 10
15.416389
 20
140.895833
 30
0.0
 10
16.235092
 20
140.895833
 30
0.0
 10
16.898056
 20
140.232876
 30
0.0
 10
16.898056
 20
139.414167
 30
0.0
  0
SPLINE
  5
12A
330
1F
100
AcDbEntity
  8
BASE_PLATE
 62
     7
100
AcDbSpline
210
0.0
220
0.0
230
1.0
 70
     8
 71
     3
 72
     8
 73
     4
 74
     0
 42
0.000000001
 43
0.0000001
 40
0.0
 40
0.0
 40
0.0
 40
0.0
 40
1.0
 40
1.0
 40
1.0
 40
1.0
 10
16.898056
 20
139.414167
 30
0.0
 10
16.898056
 20
138.595463
 30
0.0
 10
16.235092
 20
137.9325
 30
0.0
 10
15.416389
 20
137.9325
 30
0.0
  0
SPLINE
  5
12B
330
1F
100
AcDbEntity
  8
BASE_PLATE
 62
     7
100
AcDbSpline
210
0.0
220
0.0
230
1.0
 70
     8
 71
     3
 72
     8
 73
     4
 74
     0
 42
0.000000001
 43
0.0000001
 40
0.0
 40
0.0
 40
0.0
 40
0.0
 40
1.0
 40
1.0
 40
1.0
 40
1.0
 10
15.416389
 20
137.9325
 30
0.0
 10
14.597685
 20
137.9325
 30
0.0
 10
13.934722
 20
138.595463
 30
0.0
 10
13.934722
 20
139.414167
 30
0.0
  0
SPLINE
  5
12C
330
1F
100
AcDbEntity
  8
BASE_PLATE
 62
     7
100
AcDbSpline
210
0.0
220
0.0
230
1.0
 70
     8
 71
     3
 72
     8
 73
     4
 74
     0
 42
0.000000001
 43
0.0000001
 40
0.0
 40
0.0
 40
0.0
 40
0.0
 40
1.0
 40
1.0
 40
1.0
 40
1.0
 10
13.934722
 20
139.414167
 30
0.0
 10
13.934722
 20
140.181701
 30
0.0
 10
14.519032
 20
140.820006
 30
0.0
 10
15.266458
 20
140.895833
 30
0.0
  0
LINE
  5
12D
330
1F
100
AcDbEntity
  8
BASE_PLATE
 62
     7
100
AcDbLine
 10
15.266458
 20
140.895833
 30
0.0
 11
15.266458
 21
140.895833
 31
0.0
  0
LINE
  5
12E
330
1F
100
AcDbEntity
  8
BASE_PLATE
 62
     7
100
AcDbLine
 10
52.551762
 20
136.472881
 30
0.0
 11
57.452065
 21
136.472881
 31
0.0
  0
LINE
  5
12F
330
1F
100
AcDbEntity
  8
BASE_PLATE
 62
     7
100
AcDbLine
 10
57.452065
 20
136.472881
 30
0.0
 11
57.452065
 21
131.57313
 31
0.0
  0
LINE
  5
130
330
1F
100
AcDbEntity
  8
BASE_PLATE
 62
     7
100
AcDbLine
 10
57.452065
 20
131.57313
 30
0.0
 11
52.551762
 21
131.57313
 31
0.0
  0
LINE
  5
131
330
1F
100
AcDbEntity
  8
BASE_PLATE
 62
     7
100
AcDbLine
 10
52.551762
 20
131.57313
 30
0.0
 11
52.551762
 21
136.472881
 31
0.0
  0
LINE
  5
132
330
1F
100
AcDbEntity
  8
BASE_PLATE
 62
     7
100
AcDbLine
 10
87.039097
 20
135.190203
 30
0.0
 11
92.004444
 21
135.189639
 31
0.0
  0
LINE
  5
133
330
1F
100
AcDbEntity
  8
BASE_PLATE
 62
     7
100
AcDbLine
 10
92.004444
 20
135.189639
 30
0.0
 11
92.004444
 21
130.224291
 31
0.0
  0
LINE
  5
134
330
1F
100
AcDbEntity
  8
BASE_PLATE
 62
     7
100
AcDbLine
 10
92.004444
 20
130.224291
 30
0.0
 11
87.039097
 21
130.224291
 31
0.0
  0
LINE
  5
135
330
1F
100
AcDbEntity
  8
BASE_PLATE
 62
     7
100
AcDbLine
 10
87.039097
 20
130.224291
 30
0.0
 11
87.039097
 21
135.190203
 31
0.0
  0
LINE
  5
136
330
1F
100
AcDbEntity
  8
BASE_PLATE
 62
     7
100
AcDbLine
 10
100.038958
 20
135.190203
 30
0.0
 11
105.004306
 21
135.190203
 31
0.0
  0
LINE
  5
137
330
1F
100
AcDbEntity
  8
BASE_PLATE
 62
     7
100
AcDbLine
 10
105.004306
 20
135.190203
 30
0.0
 11
105.004306
 21
130.223755
 31
0.0
  0
LINE
  5
138
330
1F
100
AcDbEntity
  8
BASE_PLATE
 62
     7
100
AcDbLine
 10
105.004306
 20
130.223755
 30
0.0
 11
100.038958
 21
130.223755
 31
0.0
  0
LINE
  5
139
330
1F
100
AcDbEntity
  8
BASE_PLATE
 62
     7
100
AcDbLine
 10
100.038958
 20
130.223755
 30
0.0
 11
100.038958
 21
135.190203
 31
0.0
  0
LINE
  5
13A
330
1F
100
AcDbEntity
  8
BASE_PLATE
 62
     7
100
AcDbLine
 10
5.035903
 20
135.189639
 30
0.0
 11
10.00125
 21
135.189639
 31
0.0
  0
LINE
  5
13B
330
1F
100
AcDbEntity
  8
BASE_PLATE
 62
     7
100
AcDbLine
 10
10.00125
 20
135.189639
 30
0.0
 11
10.00125
 21
130.224291
 31
0.0
  0
LINE
  5
13C
330
1F
100
AcDbEntity
  8
BASE_PLATE
 62
     7
100
AcDbLine
 10
10.00125
 20
130.224291
 30
0.0
 11
5.035903
 21
130.224291
 31
0.0
  0
LINE
  5
13D
330
1F
100
AcDbEntity
  8
BASE_PLATE
 62
     7
100
AcDbLine
 10
5.035903
 20
130.224291
 30
0.0
 11
5.035903
 21
135.189639
 31
0.0
  0
LINE
  5
13E
330
1F
100
AcDbEntity
  8
BASE_PLATE
 62
     7
100
AcDbLine
 10
18.035764
 20
135.189639
 30
0.0
 11
23.001111
 21
135.189639
 31
0.0
  0
LINE
  5
13F
330
1F
100
AcDbEntity
  8
BASE_PLATE
 62
     7
100
AcDbLine
 10
23.001111
 20
135.189639
 30
0.0
 11
23.001111
 21
130.223741
 31
0.0
  0
LINE
  5
140
330
1F
100
AcDbEntity
  8
BASE_PLATE
 62
     7
100
AcDbLine
 10
23.001111
 20
130.223741
 30
0.0
 11
18.035764
 21
130.224306
 31
0.0
  0
LINE
  5
141
330
1F
100
AcDbEntity
  8
BASE_PLATE
 62
     7
100
AcDbLine
 10
18.035764
 20
130.224306
 30
0.0
 11
18.035764
 21
135.189639
 31
0.0
  0
LINE
  5
142
330
1F
100
AcDbEntity
  8
BASE_PLATE
 62
     7
100
AcDbLine
 10
52.502153
 20
128.206304
 30
0.0
 11
57.502778
 21
128.206304
 31
0.0
  0
LINE
  5
143
330
1F
100
AcDbEntity
  8
BASE_PLATE
 62
     7
100
AcDbLine
 10
57.502778
 20
128.206304
 30
0.0
 11
57.502778
 21
123.205679
 31
0.0
  0
LINE
  5
144
330
1F
100
AcDbEntity
  8
BASE_PLATE
 62
     7
100
AcDbLine
 10
57.502778
 20
123.205679
 30
0.0
 11
52.502153
 21
123.205679
 31
0.0
  0
LINE
  5
145
330
1F
100
AcDbEntity
  8
BASE_PLATE
 62
     7
100
AcDbLine
 10
52.502153
 20
123.205679
 30
0.0
 11
52.502153
 21
128.206304
 31
0.0
  0
SPLINE
  5
146
330
1F
100
AcDbEntity
  8
BASE_PLATE
 62
     7
100
AcDbSpline
210
0.0
220
0.0
230
1.0
 70
     8
 71
     3
 72
     8
 73
     4
 74
     0
 42
0.000000001
 43
0.0000001
 40
0.0
 40
0.0
 40
0.0
 40
0.0
 40
1.0
 40
1.0
 40
1.0
 40
1.0
 10
66.066458
 20
125.691111
 30
0.0
 10
66.116287
 20
125.696163
 30
0.0
 10
66.165219
 20
125.691111
 30
0.0
 10
66.216389
 20
125.691111
 30
0.0
  0
SPLINE
  5
147
330
1F
100
AcDbEntity
  8
BASE_PLATE
 62
     7
100
AcDbSpline
210
0.0
220
0.0
230
1.0
 70
     8
 71
     3
 72
     8
 73
     4
 74
     0
 42
0.000000001
 43
0.0000001
 40
0.0
 40
0.0
 40
0.0
 40
0.0
 40
1.0
 40
1.0
 40
1.0
 40
1.0
 10
66.216389
 20
125.691111
 30
0.0
 10
67.035093
 20
125.691111
 30
0.0
 10
67.698056
 20
125.028154
 30
0.0
 10
67.698056
 20
124.209444
 30
0.0
  0
SPLINE
  5
148
330
1F
100
AcDbEntity
  8
BASE_PLATE
 62
     7
100
AcDbSpline
210
0.0
220
0.0
230
1.0
 70
     8
 71
     3
 72
     8
 73
     4
 74
     0
 42
0.000000001
 43
0.0000001
 40
0.0
 40
0.0
 40
0.0
 40
0.0
 40
1.0
 40
1.0
 40
1.0
 40
1.0
 10
67.698056
 20
124.209444
 30
0.0
 10
67.698056
 20
123.39074
 30
0.0
 10
67.035093
 20
122.727778
 30
0.0
 10
66.216389
 20
122.727778
 30
0.0
  0
SPLINE
  5
149
330
1F
100
AcDbEntity
  8
BASE_PLATE
 62
     7
100
AcDbSpline
210
0.0
220
0.0
230
1.0
 70
     8
 71
     3
 72
     8
 73
     4
 74
     0
 42
0.000000001
 43
0.0000001
 40
0.0
 40
0.0
 40
0.0
 40
0.0
 40
1.0
 40
1.0
 40
1.0
 40
1.0
 10
66.216389
 20
122.727778
 30
0.0
 10
65.397685
 20
122.727778
 30
0.0
 10
64.734722
 20
123.39074
 30
0.0
 10
64.734722
 20
124.209444
 30
0.0
  0
SPLINE
  5
14A
330
1F
100
AcDbEntity
  8
BASE_PLATE
 62
     7
100
AcDbSpline
210
0.0
220
0.0
230
1.0
 70
     8
 71
     3
 72
     8
 73
     4
 74
     0
 42
0.000000001
 43
0.0000001
 40
0.0
 40
0.0
 40
0.0
 40
0.0
 40
1.0
 40
1.0
 40
1.0
 40
1.0
 10
64.734722
 20
124.209444
 30
0.0
 10
64.734722
 20
124.976979
 30
0.0
 10
65.319032
 20
125.615284
 30
0.0
 10
66.066458
 20
125.691111
 30
0.0
  0
LINE
  5
14B
330
1F
100
AcDbEntity
  8
BASE_PLATE
 62
     7
100
AcDbLine
 10
66.066458
 20
125.691111
 30
0.0
 11
66.066458
 21
125.691111
 31
0.0
  0
LINE
  5
14C
330
1F
100
AcDbEntity
  8
BASE_PLATE
 62
     7
100
AcDbLine
 10
5.035903
 20
120.187778
 30
0.0
 11
10.00125
 21
120.187778
 31
0.0
  0
LINE
  5
14D
330
1F
100
AcDbEntity
  8
BASE_PLATE
 62
     7
100
AcDbLine
 10
10.00125
 20
120.187778
 30
0.0
 11
10.00125
 21
115.222431
 31
0.0
  0
LINE
  5
14E
330
1F
100
AcDbEntity
  8
BASE_PLATE
 62
     7
100
AcDbLine
 10
10.00125
 20
115.222431
 30
0.0
 11
5.035903
 21
115.222431
 31
0.0
  0
LINE
  5
14F
330
1F
100
AcDbEntity
  8
BASE_PLATE
 62
     7
100
AcDbLine
 10
5.035903
 20
115.222431
 30
0.0
 11
5.035903
 21
120.187778
 31
0.0
  0
LINE
  5
150
330
1F
100
AcDbEntity
  8
BASE_PLATE
 62
     7
100
AcDbLine
 10
18.035764
 20
120.187778
 30
0.0
 11
23.001111
 21
120.187778
 31
0.0
  0
LINE
  5
151
330
1F
100
AcDbEntity
  8
BASE_PLATE
 62
     7
100
AcDbLine
 10
23.001111
 20
120.187778
 30
0.0
 11
23.001111
 21
115.22188
 31
0.0
  0
LINE
  5
152
330
1F
100
AcDbEntity
  8
BASE_PLATE
 62
     7
100
AcDbLine
 10
23.001111
 20
115.22188
 30
0.0
 11
18.035764
 21
115.222445
 31
0.0
  0
LINE
  5
153
330
1F
100
AcDbEntity
  8
BASE_PLATE
 62
     7
100
AcDbLine
 10
18.035764
 20
115.222445
 30
0.0
 11
18.035764
 21
120.187778
 31
0.0
  0
LINE
  5
154
330
1F
100
AcDbEntity
  8
BASE_PLATE
 62
     7
100
AcDbLine
 10
87.039097
 20
120.187778
 30
0.0
 11
92.004444
 21
120.187778
 31
0.0
  0
LINE
  5
155
330
1F
100
AcDbEntity
  8
BASE_PLATE
 62
     7
100
AcDbLine
 10
92.004444
 20
120.187778
 30
0.0
 11
92.004444
 21
115.222431
 31
0.0
  0
LINE
  5
156
330
1F
100
AcDbEntity
  8
BASE_PLATE
 62
     7
100
AcDbLine
 10
92.004444
 20
115.222431
 30
0.0
 11
87.039097
 21
115.222431
 31
0.0
  0
LINE
  5
157
330
1F
100
AcDbEntity
  8
BASE_PLATE
 62
     7
100
AcDbLine
 10
87.039097
 20
115.222431
 30
0.0
 11
87.039097
 21
120.187778
 31
0.0
  0
LINE
  5
158
330
1F
100
AcDbEntity
  8
BASE_PLATE
 62
     7
100
AcDbLine
 10
100.038958
 20
120.187778
 30
0.0
 11
105.004306
 21
120.187778
 31
0.0
  0
LINE
  5
159
330
1F
100
AcDbEntity
  8
BASE_PLATE
 62
     7
100
AcDbLine
 10
105.004306
 20
120.187778
 30
0.0
 11
105.004306
 21
115.22188
 31
0.0
  0
LINE
  5
15A
330
1F
100
AcDbEntity
  8
BASE_PLATE
 62
     7
100
AcDbLine
 10
105.004306
 20
115.22188
 30
0.0
 11
100.038958
 21
115.22188
 31
0.0
  0
LINE
  5
15B
330
1F
100
AcDbEntity
  8
BASE_PLATE
 62
     7
100
AcDbLine
 10
100.038958
 20
115.22188
 30
0.0
 11
100.038958
 21
120.187778
 31
0.0
  0
LINE
  5
15C
330
1F
100
AcDbEntity
  8
BASE_PLATE
 62
     7
100
AcDbLine
 10
52.502153
 20
105.203542
 30
0.0
 11
57.502778
 21
105.203542
 31
0.0
  0
LINE
  5
15D
330
1F
100
AcDbEntity
  8
BASE_PLATE
 62
     7
100
AcDbLine
 10
57.502778
 20
105.203542
 30
0.0
 11
57.502778
 21
100.202917
 31
0.0
  0
LINE
  5
15E
330
1F
100
AcDbEntity
  8
BASE_PLATE
 62
     7
100
AcDbLine
 10
57.502778
 20
100.202917
 30
0.0
 11
52.502153
 21
100.202917
 31
0.0
  0
LINE
  5
15F
330
1F
100
AcDbEntity
  8
BASE_PLATE
 62
     7
100
AcDbLine
 10
52.502153
 20
100.202917
 30
0.0
 11
52.502153
 21
105.203542
 31
0.0
  0
LINE
  5
160
330
1F
100
AcDbEntity
  8
BASE_PLATE
 62
     7
100
AcDbLine
 10
5.035903
 20
105.185903
 30
0.0
 11
10.00125
 21
105.185903
 31
0.0
  0
LINE
  5
161
330
1F
100
AcDbEntity
  8
BASE_PLATE
 62
     7
100
AcDbLine
 10
10.00125
 20
105.185903
 30
0.0
 11
10.00125
 21
100.220556
 31
0.0
  0
LINE
  5
162
330
1F
100
AcDbEntity
  8
BASE_PLATE
 62
     7
100
AcDbLine
 10
10.00125
 20
100.220556
 30
0.0
 11
5.035903
 21
100.220556
 31
0.0
  0
LINE
  5
163
330
1F
100
AcDbEntity
  8
BASE_PLATE
 62
     7
100
AcDbLine
 10
5.035903
 20
100.220556
 30
0.0
 11
5.035903
 21
105.185903
 31
0.0
  0
LINE
  5
164
330
1F
100
AcDbEntity
  8
BASE_PLATE
 62
     7
100
AcDbLine
 10
18.035764
 20
105.185903
 30
0.0
 11
23.001111
 21
105.185903
 31
0.0
  0
LINE
  5
165
330
1F
100
AcDbEntity
  8
BASE_PLATE
 62
     7
100
AcDbLine
 10
23.001111
 20
105.185903
 30
0.0
 11
23.001111
 21
100.220556
 31
0.0
  0
LINE
  5
166
330
1F
100
AcDbEntity
  8
BASE_PLATE
 62
     7
100
AcDbLine
 10
23.001111
 20
100.220556
 30
0.0
 11
18.035764
 21
100.22112
 31
0.0
  0
LINE
  5
167
330
1F
100
AcDbEntity
  8
BASE_PLATE
 62
     7
100
AcDbLine
 10
18.035764
 20
100.22112
 30
0.0
 11
18.035764
 21
105.185903
 31
0.0
  0
LINE
  5
168
330
1F
100
AcDbEntity
  8
BASE_PLATE
 62
     7
100
AcDbLine
 10
87.039097
 20
105.185903
 30
0.0
 11
92.004444
 21
105.185903
 31
0.0
  0
LINE
  5
169
330
1F
100
AcDbEntity
  8
BASE_PLATE
 62
     7
100
AcDbLine
 10
92.004444
 20
105.185903
 30
0.0
 11
92.004444
 21
100.220556
 31
0.0
  0
LINE
  5
16A
330
1F
100
AcDbEntity
  8
BASE_PLATE
 62
     7
100
AcDbLine
 10
92.004444
 20
100.220556
 30
0.0
 11
87.039097
 21
100.220556
 31
0.0
  0
LINE
  5
16B
330
1F
100
AcDbEntity
  8
BASE_PLATE
 62
     7
100
AcDbLine
 10
87.039097
 20
100.220556
 30
0.0
 11
87.039097
 21
105.185903
 31
0.0
  0
LINE
  5
16C
330
1F
100
AcDbEntity
  8
BASE_PLATE
 62
     7
100
AcDbLine
 10
100.038958
 20
105.185903
 30
0.0
 11
105.004306
 21
105.185903
 31
0.0
  0
LINE
  5
16D
330
1F
100
AcDbEntity
  8
BASE_PLATE
 62
     7
100
AcDbLine
 10
105.004306
 20
105.185903
 30
0.0
 11
105.004306
 21
100.221106
 31
0.0
  0
LINE
  5
16E
330
1F
100
AcDbEntity
  8
BASE_PLATE
 62
     7
100
AcDbLine
 10
105.004306
 20
100.221106
 30
0.0
 11
100.038958
 21
100.221106
 31
0.0
  0
LINE
  5
16F
330
1F
100
AcDbEntity
  8
BASE_PLATE
 62
     7
100
AcDbLine
 10
100.038958
 20
100.221106
 30
0.0
 11
100.038958
 21
105.185903
 31
0.0
  0
SPLINE
  5
170
330
1F
100
AcDbEntity
  8
BASE_PLATE
 62
     7
100
AcDbSpline
210
0.0
220
0.0
230
1.0
 70
     8
 71
     3
 72
     8
 73
     4
 74
     0
 42
0.000000001
 43
0.0000001
 40
0.0
 40
0.0
 40
0.0
 40
0.0
 40
1.0
 40
1.0
 40
1.0
 40
1.0
 10
66.066458
 20
97.795208
 30
0.0
 10
66.116287
 20
97.80026
 30
0.0
 10
66.165219
 20
97.795208
 30
0.0
 10
66.216389
 20
97.795208
 30
0.0
  0
SPLINE
  5
171
330
1F
100
AcDbEntity
  8
BASE_PLATE
 62
     7
100
AcDbSpline
210
0.0
220
0.0
230
1.0
 70
     8
 71
     3
 72
     8
 73
     4
 74
     0
 42
0.000000001
 43
0.0000001
 40
0.0
 40
0.0
 40
0.0
 40
0.0
 40
1.0
 40
1.0
 40
1.0
 40
1.0
 10
66.216389
 20
97.795208
 30
0.0
 10
67.035093
 20
97.795208
 30
0.0
 10
67.698056
 20
97.132251
 30
0.0
 10
67.698056
 20
96.313542
 30
0.0
  0
SPLINE
  5
172
330
1F
100
AcDbEntity
  8
BASE_PLATE
 62
     7
100
AcDbSpline
210
0.0
220
0.0
230
1.0
 70
     8
 71
     3
 72
     8
 73
     4
 74
     0
 42
0.000000001
 43
0.0000001
 40
0.0
 40
0.0
 40
0.0
 40
0.0
 40
1.0
 40
1.0
 40
1.0
 40
1.0
 10
67.698056
 20
96.313542
 30
0.0
 10
67.698056
 20
95.494838
 30
0.0
 10
67.035093
 20
94.831875
 30
0.0
 10
66.216389
 20
94.831875
 30
0.0
  0
SPLINE
  5
173
330
1F
100
AcDbEntity
  8
BASE_PLATE
 62
     7
100
AcDbSpline
210
0.0
220
0.0
230
1.0
 70
     8
 71
     3
 72
     8
 73
     4
 74
     0
 42
0.000000001
 43
0.0000001
 40
0.0
 40
0.0
 40
0.0
 40
0.0
 40
1.0
 40
1.0
 40
1.0
 40
1.0
 10
66.216389
 20
94.831875
 30
0.0
 10
65.397685
 20
94.831875
 30
0.0
 10
64.734722
 20
95.494838
 30
0.0
 10
64.734722
 20
96.313542
 30
0.0
  0
SPLINE
  5
174
330
1F
100
AcDbEntity
  8
BASE_PLATE
 62
     7
100
AcDbSpline
210
0.0
220
0.0
230
1.0
 70
     8
 71
     3
 72
     8
 73
     4
 74
     0
 42
0.000000001
 43
0.0000001
 40
0.0
 40
0.0
 40
0.0
 40
0.0
 40
1.0
 40
1.0
 40
1.0
 40
1.0
 10
64.734722
 20
96.313542
 30
0.0
 10
64.734722
 20
97.081076
 30
0.0
 10
65.319032
 20
97.719381
 30
0.0
 10
66.066458
 20
97.795208
 30
0.0
  0
LINE
  5
175
330
1F
100
AcDbEntity
  8
BASE_PLATE
 62
     7
100
AcDbLine
 10
66.066458
 20
97.795208
 30
0.0
 11
66.066458
 21
97.795208
 31
0.0
  0
SPLINE
  5
176
330
1F
100
AcDbEntity
  8
BASE_PLATE
 62
     7
100
AcDbSpline
210
0.0
220
0.0
230
1.0
 70
     8
 71
     3
 72
     8
 73
     4
 74
     0
 42
0.000000001
 43
0.0000001
 40
0.0
 40
0.0
 40
0.0
 40
0.0
 40
1.0
 40
1.0
 40
1.0
 40
1.0
 10
13.961181
 20
92.697569
 30
0.0
 10
14.011009
 20
92.702678
 30
0.0
 10
14.059942
 20
92.697569
 30
0.0
 10
14.111111
 20
92.697569
 30
0.0
  0
SPLINE
  5
177
330
1F
100
AcDbEntity
  8
BASE_PLATE
 62
     7
100
AcDbSpline
210
0.0
220
0.0
230
1.0
 70
     8
 71
     3
 72
     8
 73
     4
 74
     0
 42
0.000000001
 43
0.0000001
 40
0.0
 40
0.0
 40
0.0
 40
0.0
 40
1.0
 40
1.0
 40
1.0
 40
1.0
 10
14.111111
 20
92.697569
 30
0.0
 10
14.929814
 20
92.697569
 30
0.0
 10
15.592778
 20
92.025793
 30
0.0
 10
15.592778
 20
91.207083
 30
0.0
  0
SPLINE
  5
178
330
1F
100
AcDbEntity
  8
BASE_PLATE
 62
     7
100
AcDbSpline
210
0.0
220
0.0
230
1.0
 70
     8
 71
     3
 72
     8
 73
     4
 74
     0
 42
0.000000001
 43
0.0000001
 40
0.0
 40
0.0
 40
0.0
 40
0.0
 40
1.0
 40
1.0
 40
1.0
 40
1.0
 10
15.592778
 20
91.207083
 30
0.0
 10
15.592778
 20
90.388379
 30
0.0
 10
14.929814
 20
89.725417
 30
0.0
 10
14.111111
 20
89.725417
 30
0.0
  0
SPLINE
  5
179
330
1F
100
AcDbEntity
  8
BASE_PLATE
 62
     7
100
AcDbSpline
210
0.0
220
0.0
230
1.0
 70
     8
 71
     3
 72
     8
 73
     4
 74
     0
 42
0.000000001
 43
0.0000001
 40
0.0
 40
0.0
 40
0.0
 40
0.0
 40
1.0
 40
1.0
 40
1.0
 40
1.0
 10
14.111111
 20
89.725417
 30
0.0
 10
13.292407
 20
89.725417
 30
0.0
 10
12.629444
 20
90.388379
 30
0.0
 10
12.629444
 20
91.207083
 30
0.0
  0
SPLINE
  5
17A
330
1F
100
AcDbEntity
  8
BASE_PLATE
 62
     7
100
AcDbSpline
210
0.0
220
0.0
230
1.0
 70
     8
 71
     3
 72
     8
 73
     4
 74
     0
 42
0.000000001
 43
0.0000001
 40
0.0
 40
0.0
 40
0.0
 40
0.0
 40
1.0
 40
1.0
 40
1.0
 40
1.0
 10
12.629444
 20
91.207083
 30
0.0
 10
12.629444
 20
91.974618
 30
0.0
 10
13.213754
 20
92.620774
 30
0.0
 10
13.961181
 20
92.697569
 30
0.0
  0
LINE
  5
17B
330
1F
100
AcDbEntity
  8
BASE_PLATE
 62
     7
100
AcDbLine
 10
13.961181
 20
92.697569
 30
0.0
 11
13.961181
 21
92.697569
 31
0.0
  0
LINE
  5
17C
330
1F
100
AcDbEntity
  8
BASE_PLATE
 62
     7
100
AcDbLine
 10
5.035903
 20
90.184028
 30
0.0
 11
10.00125
 21
90.184028
 31
0.0
  0
LINE
  5
17D
330
1F
100
AcDbEntity
  8
BASE_PLATE
 62
     7
100
AcDbLine
 10
10.00125
 20
90.184028
 30
0.0
 11
10.00125
 21
85.218681
 31
0.0
  0
LINE
  5
17E
330
1F
100
AcDbEntity
  8
BASE_PLATE
 62
     7
100
AcDbLine
 10
10.00125
 20
85.218681
 30
0.0
 11
5.035903
 21
85.218681
 31
0.0
  0
LINE
  5
17F
330
1F
100
AcDbEntity
  8
BASE_PLATE
 62
     7
100
AcDbLine
 10
5.035903
 20
85.218681
 30
0.0
 11
5.035903
 21
90.184028
 31
0.0
  0
LINE
  5
180
330
1F
100
AcDbEntity
  8
BASE_PLATE
 62
     7
100
AcDbLine
 10
18.035764
 20
90.184028
 30
0.0
 11
23.001111
 21
90.184028
 31
0.0
  0
LINE
  5
181
330
1F
100
AcDbEntity
  8
BASE_PLATE
 62
     7
100
AcDbLine
 10
23.001111
 20
90.184028
 30
0.0
 11
23.001111
 21
85.219231
 31
0.0
  0
LINE
  5
182
330
1F
100
AcDbEntity
  8
BASE_PLATE
 62
     7
100
AcDbLine
 10
23.001111
 20
85.219231
 30
0.0
 11
18.035764
 21
85.218666
 31
0.0
  0
LINE
  5
183
330
1F
100
AcDbEntity
  8
BASE_PLATE
 62
     7
100
AcDbLine
 10
18.035764
 20
85.218666
 30
0.0
 11
18.035764
 21
90.184028
 31
0.0
  0
LINE
  5
184
330
1F
100
AcDbEntity
  8
BASE_PLATE
 62
     7
100
AcDbLine
 10
87.039097
 20
90.184028
 30
0.0
 11
92.004444
 21
90.184028
 31
0.0
  0
LINE
  5
185
330
1F
100
AcDbEntity
  8
BASE_PLATE
 62
     7
100
AcDbLine
 10
92.004444
 20
90.184028
 30
0.0
 11
92.004444
 21
85.219231
 31
0.0
  0
LINE
  5
186
330
1F
100
AcDbEntity
  8
BASE_PLATE
 62
     7
100
AcDbLine
 10
92.004444
 20
85.219231
 30
0.0
 11
87.039097
 21
85.219231
 31
0.0
  0
LINE
  5
187
330
1F
100
AcDbEntity
  8
BASE_PLATE
 62
     7
100
AcDbLine
 10
87.039097
 20
85.219231
 30
0.0
 11
87.039097
 21
90.184028
 31
0.0
  0
LINE
  5
188
330
1F
100
AcDbEntity
  8
BASE_PLATE
 62
     7
100
AcDbLine
 10
100.038958
 20
90.184028
 30
0.0
 11
105.004306
 21
90.184028
 31
0.0
  0
LINE
  5
189
330
1F
100
AcDbEntity
  8
BASE_PLATE
 62
     7
100
AcDbLine
 10
105.004306
 20
90.184028
 30
0.0
 11
105.004306
 21
85.219231
 31
0.0
  0
LINE
  5
18A
330
1F
100
AcDbEntity
  8
BASE_PLATE
 62
     7
100
AcDbLine
 10
105.004306
 20
85.219231
 30
0.0
 11
100.038958
 21
85.219231
 31
0.0
  0
LINE
  5
18B
330
1F
100
AcDbEntity
  8
BASE_PLATE
 62
     7
100
AcDbLine
 10
100.038958
 20
85.219231
 30
0.0
 11
100.038958
 21
90.184028
 31
0.0
  0
LINE
  5
18C
330
1F
100
AcDbEntity
  8
BASE_PLATE
 62
     7
100
AcDbLine
 10
5.035903
 20
75.182153
 30
0.0
 11
10.00125
 21
75.182153
 31
0.0
  0
LINE
  5
18D
330
1F
100
AcDbEntity
  8
BASE_PLATE
 62
     7
100
AcDbLine
 10
10.00125
 20
75.182153
 30
0.0
 11
10.00125
 21
70.216806
 31
0.0
  0
LINE
  5
18E
330
1F
100
AcDbEntity
  8
BASE_PLATE
 62
     7
100
AcDbLine
 10
10.00125
 20
70.216806
 30
0.0
 11
5.035903
 21
70.216806
 31
0.0
  0
LINE
  5
18F
330
1F
100
AcDbEntity
  8
BASE_PLATE
 62
     7
100
AcDbLine
 10
5.035903
 20
70.216806
 30
0.0
 11
5.035903
 21
75.182153
 31
0.0
  0
LINE
  5
190
330
1F
100
AcDbEntity
  8
BASE_PLATE
 62
     7
100
AcDbLine
 10
18.035764
 20
75.182153
 30
0.0
 11
23.001111
 21
75.182153
 31
0.0
  0
LINE
  5
191
330
1F
100
AcDbEntity
  8
BASE_PLATE
 62
     7
100
AcDbLine
 10
23.001111
 20
75.182153
 30
0.0
 11
23.001111
 21
70.216806
 31
0.0
  0
LINE
  5
192
330
1F
100
AcDbEntity
  8
BASE_PLATE
 62
     7
100
AcDbLine
 10
23.001111
 20
70.216806
 30
0.0
 11
18.035764
 21
70.216806
 31
0.0
  0
LINE
  5
193
330
1F
100
AcDbEntity
  8
BASE_PLATE
 62
     7
100
AcDbLine
 10
18.035764
 20
70.216806
 30
0.0
 11
18.035764
 21
75.182153
 31
0.0
  0
LINE
  5
194
330
1F
100
AcDbEntity
  8
BASE_PLATE
 62
     7
100
AcDbLine
 10
52.502153
 20
75.182153
 30
0.0
 11
57.502778
 21
75.182153
 31
0.0
  0
LINE
  5
195
330
1F
100
AcDbEntity
  8
BASE_PLATE
 62
     7
100
AcDbLine
 10
57.502778
 20
75.182153
 30
0.0
 11
57.502778
 21
70.216806
 31
0.0
  0
LINE
  5
196
330
1F
100
AcDbEntity
  8
BASE_PLATE
 62
     7
100
AcDbLine
 10
57.502778
 20
70.216806
 30
0.0
 11
52.502153
 21
70.216806
 31
0.0
  0
LINE
  5
197
330
1F
100
AcDbEntity
  8
BASE_PLATE
 62
     7
100
AcDbLine
 10
52.502153
 20
70.216806
 30
0.0
 11
52.502153
 21
75.182153
 31
0.0
  0
LINE
  5
198
330
1F
100
AcDbEntity
  8
BASE_PLATE
 62
     7
100
AcDbLine
 10
87.039097
 20
75.182153
 30
0.0
 11
92.004444
 21
75.182153
 31
0.0
  0
LINE
  5
199
330
1F
100
AcDbEntity
  8
BASE_PLATE
 62
     7
100
AcDbLine
 10
92.004444
 20
75.182153
 30
0.0
 11
92.004444
 21
70.216806
 31
0.0
  0
LINE
  5
19A
330
1F
100
AcDbEntity
  8
BASE_PLATE
 62
     7
100
AcDbLine
 10
92.004444
 20
70.216806
 30
0.0
 11
87.039097
 21
70.216806
 31
0.0
  0
LINE
  5
19B
330
1F
100
AcDbEntity
  8
BASE_PLATE
 62
     7
100
AcDbLine
 10
87.039097
 20
70.216806
 30
0.0
 11
87.039097
 21
75.182153
 31
0.0
  0
LINE
  5
19C
330
1F
100
AcDbEntity
  8
BASE_PLATE
 62
     7
100
AcDbLine
 10
100.038958
 20
75.182153
 30
0.0
 11
105.004306
 21
75.182153
 31
0.0
  0
LINE
  5
19D
330
1F
100
AcDbEntity
  8
BASE_PLATE
 62
     7
100
AcDbLine
 10
105.004306
 20
75.182153
 30
0.0
 11
105.004306
 21
70.216806
 31
0.0
  0
LINE
  5
19E
330
1F
100
AcDbEntity
  8
BASE_PLATE
 62
     7
100
AcDbLine
 10
105.004306
 20
70.216806
 30
0.0
 11
100.038958
 21
70.216806
 31
0.0
  0
LINE
  5
19F
330
1F
100
AcDbEntity
  8
BASE_PLATE
 62
     7
100
AcDbLine
 10
100.038958
 20
70.216806
 30
0.0
 11
100.038958
 21
75.182153
 31
0.0
  0
LINE
  5
1A0
330
1F
100
AcDbEntity
  8
BASE_PLATE
 62
     7
100
AcDbLine
 10
5.035903
 20
60.189097
 30
0.0
 11
10.00125
 21
60.189097
 31
0.0
  0
LINE
  5
1A1
330
1F
100
AcDbEntity
  8
BASE_PLATE
 62
     7
100
AcDbLine
 10
10.00125
 20
60.189097
 30
0.0
 11
10.00125
 21
55.22375
 31
0.0
  0
LINE
  5
1A2
330
1F
100
AcDbEntity
  8
BASE_PLATE
 62
     7
100
AcDbLine
 10
10.00125
 20
55.22375
 30
0.0
 11
5.035903
 21
55.22375
 31
0.0
  0
LINE
  5
1A3
330
1F
100
AcDbEntity
  8
BASE_PLATE
 62
     7
100
AcDbLine
 10
5.035903
 20
55.22375
 30
0.0
 11
5.035903
 21
60.189097
 31
0.0
  0
LINE
  5
1A4
330
1F
100
AcDbEntity
  8
BASE_PLATE
 62
     7
100
AcDbLine
 10
18.035764
 20
60.189097
 30
0.0
 11
23.001111
 21
60.189097
 31
0.0
  0
LINE
  5
1A5
330
1F
100
AcDbEntity
  8
BASE_PLATE
 62
     7
100
AcDbLine
 10
23.001111
 20
60.189097
 30
0.0
 11
23.001111
 21
55.22375
 31
0.0
  0
LINE
  5
1A6
330
1F
100
AcDbEntity
  8
BASE_PLATE
 62
     7
100
AcDbLine
 10
23.001111
 20
55.22375
 30
0.0
 11
18.035764
 21
55.22375
 31
0.0
  0
LINE
  5
1A7
330
1F
100
AcDbEntity
  8
BASE_PLATE
 62
     7
100
AcDbLine
 10
18.035764
 20
55.22375
 30
0.0
 11
18.035764
 21
60.189097
 31
0.0
  0
LINE
  5
1A8
330
1F
100
AcDbEntity
  8
BASE_PLATE
 62
     7
100
AcDbLine
 10
87.039097
 20
60.189097
 30
0.0
 11
92.004444
 21
60.189097
 31
0.0
  0
LINE
  5
1A9
330
1F
100
AcDbEntity
  8
BASE_PLATE
 62
     7
100
AcDbLine
 10
92.004444
 20
60.189097
 30
0.0
 11
92.004444
 21
55.22375
 31
0.0
  0
LINE
  5
1AA
330
1F
100
AcDbEntity
  8
BASE_PLATE
 62
     7
100
AcDbLine
 10
92.004444
 20
55.22375
 30
0.0
 11
87.039097
 21
55.22375
 31
0.0
  0
LINE
  5
1AB
330
1F
100
AcDbEntity
  8
BASE_PLATE
 62
     7
100
AcDbLine
 10
87.039097
 20
55.22375
 30
0.0
 11
87.039097
 21
60.189097
 31
0.0
  0
LINE
  5
1AC
330
1F
100
AcDbEntity
  8
BASE_PLATE
 62
     7
100
AcDbLine
 10
100.038958
 20
60.189097
 30
0.0
 11
105.004306
 21
60.189097
 31
0.0
  0
LINE
  5
1AD
330
1F
100
AcDbEntity
  8
BASE_PLATE
 62
     7
100
AcDbLine
 10
105.004306
 20
60.189097
 30
0.0
 11
105.004306
 21
55.22375
 31
0.0
  0
LINE
  5
1AE
330
1F
100
AcDbEntity
  8
BASE_PLATE
 62
     7
100
AcDbLine
 10
105.004306
 20
55.22375
 30
0.0
 11
100.038958
 21
55.22375
 31
0.0
  0
LINE
  5
1AF
330
1F
100
AcDbEntity
  8
BASE_PLATE
 62
     7
100
AcDbLine
 10
100.038958
 20
55.22375
 30
0.0
 11
100.038958
 21
60.189097
 31
0.0
  0
LINE
  5
1B0
330
1F
100
AcDbEntity
  8
BASE_PLATE
 62
     7
100
AcDbLine
 10
52.502153
 20
47.500121
 30
0.0
 11
57.502778
 21
47.500121
 31
0.0
  0
LINE
  5
1B1
330
1F
100
AcDbEntity
  8
BASE_PLATE
 62
     7
100
AcDbLine
 10
57.502778
 20
47.500121
 30
0.0
 11
57.502778
 21
42.500049
 31
0.0
  0
LINE
  5
1B2
330
1F
100
AcDbEntity
  8
BASE_PLATE
 62
     7
100
AcDbLine
 10
57.502778
 20
42.500049
 30
0.0
 11
52.502153
 21
42.500049
 31
0.0
  0
LINE
  5
1B3
330
1F
100
AcDbEntity
  8
BASE_PLATE
 62
     7
100
AcDbLine
 10
52.502153
 20
42.500049
 30
0.0
 11
52.502153
 21
47.500121
 31
0.0
  0
LINE
  5
1B4
330
1F
100
AcDbEntity
  8
BASE_PLATE
 62
     7
100
AcDbLine
 10
5.035903
 20
45.187222
 30
0.0
 11
10.00125
 21
45.187222
 31
0.0
  0
LINE
  5
1B5
330
1F
100
AcDbEntity
  8
BASE_PLATE
 62
     7
100
AcDbLine
 10
10.00125
 20
45.187222
 30
0.0
 11
10.00125
 21
40.221875
 31
0.0
  0
LINE
  5
1B6
330
1F
100
AcDbEntity
  8
BASE_PLATE
 62
     7
100
AcDbLine
 10
10.00125
 20
40.221875
 30
0.0
 11
5.035903
 21
40.221875
 31
0.0
  0
LINE
  5
1B7
330
1F
100
AcDbEntity
  8
BASE_PLATE
 62
     7
100
AcDbLine
 10
5.035903
 20
40.221875
 30
0.0
 11
5.035903
 21
45.187222
 31
0.0
  0
LINE
  5
1B8
330
1F
100
AcDbEntity
  8
BASE_PLATE
 62
     7
100
AcDbLine
 10
18.035764
 20
45.187222
 30
0.0
 11
23.001111
 21
45.187222
 31
0.0
  0
LINE
  5
1B9
330
1F
100
AcDbEntity
  8
BASE_PLATE
 62
     7
100
AcDbLine
 10
23.001111
 20
45.187222
 30
0.0
 11
23.001111
 21
40.221875
 31
0.0
  0
LINE
  5
1BA
330
1F
100
AcDbEntity
  8
BASE_PLATE
 62
     7
100
AcDbLine
 10
23.001111
 20
40.221875
 30
0.0
 11
18.035764
 21
40.221875
 31
0.0
  0
LINE
  5
1BB
330
1F
100
AcDbEntity
  8
BASE_PLATE
 62
     7
100
AcDbLine
 10
18.035764
 20
40.221875
 30
0.0
 11
18.035764
 21
45.187222
 31
0.0
  0
LINE
  5
1BC
330
1F
100
AcDbEntity
  8
BASE_PLATE
 62
     7
100
AcDbLine
 10
87.039097
 20
45.187222
 30
0.0
 11
92.004444
 21
45.187222
 31
0.0
  0
LINE
  5
1BD
330
1F
100
AcDbEntity
  8
BASE_PLATE
 62
     7
100
AcDbLine
 10
92.004444
 20
45.187222
 30
0.0
 11
92.004444
 21
40.221875
 31
0.0
  0
LINE
  5
1BE
330
1F
100
AcDbEntity
  8
BASE_PLATE
 62
     7
100
AcDbLine
 10
92.004444
 20
40.221875
 30
0.0
 11
87.039097
 21
40.221875
 31
0.0
  0
LINE
  5
1BF
330
1F
100
AcDbEntity
  8
BASE_PLATE
 62
     7
100
AcDbLine
 10
87.039097
 20
40.221875
 30
0.0
 11
87.039097
 21
45.187222
 31
0.0
  0
LINE
  5
1C0
330
1F
100
AcDbEntity
  8
BASE_PLATE
 62
     7
100
AcDbLine
 10
100.038958
 20
45.187222
 30
0.0
 11
105.004306
 21
45.187222
 31
0.0
  0
LINE
  5
1C1
330
1F
100
AcDbEntity
  8
BASE_PLATE
 62
     7
100
AcDbLine
 10
105.004306
 20
45.187222
 30
0.0
 11
105.004306
 21
40.221875
 31
0.0
  0
LINE
  5
1C2
330
1F
100
AcDbEntity
  8
BASE_PLATE
 62
     7
100
AcDbLine
 10
105.004306
 20
40.221875
 30
0.0
 11
100.038958
 21
40.221875
 31
0.0
  0
LINE
  5
1C3
330
1F
100
AcDbEntity
  8
BASE_PLATE
 62
     7
100
AcDbLine
 10
100.038958
 20
40.221875
 30
0.0
 11
100.038958
 21
45.187222
 31
0.0
  0
LINE
  5
1C4
330
1F
100
AcDbEntity
  8
BASE_PLATE
 62
     7
100
AcDbLine
 10
5.018264
 20
30.185347
 30
0.0
 11
9.983611
 21
30.185347
 31
0.0
  0
LINE
  5
1C5
330
1F
100
AcDbEntity
  8
BASE_PLATE
 62
     7
100
AcDbLine
 10
9.983611
 20
30.185347
 30
0.0
 11
9.983611
 21
25.22
 31
0.0
  0
LINE
  5
1C6
330
1F
100
AcDbEntity
  8
BASE_PLATE
 62
     7
100
AcDbLine
 10
9.983611
 20
25.22
 30
0.0
 11
5.018264
 21
25.22
 31
0.0
  0
LINE
  5
1C7
330
1F
100
AcDbEntity
  8
BASE_PLATE
 62
     7
100
AcDbLine
 10
5.018264
 20
25.22
 30
0.0
 11
5.018264
 21
30.185347
 31
0.0
  0
LINE
  5
1C8
330
1F
100
AcDbEntity
  8
BASE_PLATE
 62
     7
100
AcDbLine
 10
18.018125
 20
30.185347
 30
0.0
 11
22.983472
 21
30.185347
 31
0.0
  0
LINE
  5
1C9
330
1F
100
AcDbEntity
  8
BASE_PLATE
 62
     7
100
AcDbLine
 10
22.983472
 20
30.185347
 30
0.0
 11
22.983472
 21
25.22
 31
0.0
  0
LINE
  5
1CA
330
1F
100
AcDbEntity
  8
BASE_PLATE
 62
     7
100
AcDbLine
 10
22.983472
 20
25.22
 30
0.0
 11
18.018125
 21
25.22
 31
0.0
  0
LINE
  5
1CB
330
1F
100
AcDbEntity
  8
BASE_PLATE
 62
     7
100
AcDbLine
 10
18.018125
 20
25.22
 30
0.0
 11
18.018125
 21
30.185347
 31
0.0
  0
LINE
  5
1CC
330
1F
100
AcDbEntity
  8
BASE_PLATE
 62
     7
100
AcDbLine
 10
87.021458
 20
30.185347
 30
0.0
 11
91.986806
 21
30.185347
 31
0.0
  0
LINE
  5
1CD
330
1F
100
AcDbEntity
  8
BASE_PLATE
 62
     7
100
AcDbLine
 10
91.986806
 20
30.185347
 30
0.0
 11
91.986806
 21
25.22
 31
0.0
  0
LINE
  5
1CE
330
1F
100
AcDbEntity
  8
BASE_PLATE
 62
     7
100
AcDbLine
 10
91.986806
 20
25.22
 30
0.0
 11
87.021458
 21
25.22
 31
0.0
  0
LINE
  5
1CF
330
1F
100
AcDbEntity
  8
BASE_PLATE
 62
     7
100
AcDbLine
 10
87.021458
 20
25.22
 30
0.0
 11
87.021458
 21
30.185347
 31
0.0
  0
LINE
  5
1D0
330
1F
100
AcDbEntity
  8
BASE_PLATE
 62
     7
100
AcDbLine
 10
100.021319
 20
30.185347
 30
0.0
 11
104.986667
 21
30.185347
 31
0.0
  0
LINE
  5
1D1
330
1F
100
AcDbEntity
  8
BASE_PLATE
 62
     7
100
AcDbLine
 10
104.986667
 20
30.185347
 30
0.0
 11
104.986667
 21
25.22
 31
0.0
  0
LINE
  5
1D2
330
1F
100
AcDbEntity
  8
BASE_PLATE
 62
     7
100
AcDbLine
 10
104.986667
 20
25.22
 30
0.0
 11
100.021319
 21
25.22
 31
0.0
  0
LINE
  5
1D3
330
1F
100
AcDbEntity
  8
BASE_PLATE
 62
     7
100
AcDbLine
 10
100.021319
 20
25.22
 30
0.0
 11
100.021319
 21
30.185347
 31
0.0
  0
LINE
  5
1D4
330
1F
100
AcDbEntity
  8
BASE_PLATE
 62
     7
100
AcDbLine
 10
52.502153
 20
19.999992
 30
0.0
 11
57.502778
 21
19.999992
 31
0.0
  0
LINE
  5
1D5
330
1F
100
AcDbEntity
  8
BASE_PLATE
 62
     7
100
AcDbLine
 10
57.502778
 20
19.999992
 30
0.0
 11
57.502778
 21
14.999918
 31
0.0
  0
LINE
  5
1D6
330
1F
100
AcDbEntity
  8
BASE_PLATE
 62
     7
100
AcDbLine
 10
57.502778
 20
14.999918
 30
0.0
 11
52.502153
 21
14.999918
 31
0.0
  0
LINE
  5
1D7
330
1F
100
AcDbEntity
  8
BASE_PLATE
 62
     7
100
AcDbLine
 10
52.502153
 20
14.999918
 30
0.0
 11
52.502153
 21
19.999992
 31
0.0
  0
LINE
  5
1D8
330
1F
100
AcDbEntity
  8
BUMPER_PLATES
 62
     7
100
AcDbLine
 10
0.0
 20
205.000015
 30
0.0
 11
0.0
 21
165.017646
 31
0.0
  0
LINE
  5
1D9
330
1F
100
AcDbEntity
  8
BUMPER_PLATES
 62
     7
100
AcDbLine
 10
0.0
 20
165.017646
 30
0.0
 11
109.996111
 21
165.017646
 31
0.0
  0
LINE
  5
1DA
330
1F
100
AcDbEntity
  8
BUMPER_PLATES
 62
     7
100
AcDbLine
 10
109.996111
 20
165.017646
 30
0.0
 11
109.996111
 21
205.000015
 31
0.0
  0
LINE
  5
1DB
330
1F
100
AcDbEntity
  8
BUMPER_PLATES
 62
     7
100
AcDbLine
 10
109.996111
 20
205.000015
 30
0.0
 11
0.0
 21
205.000015
 31
0.0
  0
LINE
  5
1DC
330
1F
100
AcDbEntity
  8
BUMPER_PLATES
 62
     7
100
AcDbLine
 10
5.008819
 20
197.0002
 30
0.0
 11
104.999999
 21
196.999918
 31
0.0
  0
LINE
  5
1DD
330
1F
100
AcDbEntity
  8
BUMPER_PLATES
 62
     7
100
AcDbLine
 10
104.999999
 20
196.999918
 30
0.0
 11
104.999999
 21
193.999918
 31
0.0
  0
LINE
  5
1DE
330
1F
100
AcDbEntity
  8
BUMPER_PLATES
 62
     7
100
AcDbLine
 10
104.999999
 20
193.999918
 30
0.0
 11
5.008819
 21
194.0002
 31
0.0
  0
LINE
  5
1DF
330
1F
100
AcDbEntity
  8
BUMPER_PLATES
 62
     7
100
AcDbLine
 10
5.008819
 20
194.0002
 30
0.0
 11
5.008819
 21
197.0002
 31
0.0
  0
LINE
  5
1E0
330
1F
100
AcDbEntity
  8
BUMPER_PLATES
 62
     7
100
AcDbLine
 10
5.0
 20
189.000013
 30
0.0
 11
105.004306
 21
189.000013
 31
0.0
  0
LINE
  5
1E1
330
1F
100
AcDbEntity
  8
BUMPER_PLATES
 62
     7
100
AcDbLine
 10
105.004306
 20
189.000013
 30
0.0
 11
105.004306
 21
186.000013
 31
0.0
  0
LINE
  5
1E2
330
1F
100
AcDbEntity
  8
BUMPER_PLATES
 62
     7
100
AcDbLine
 10
105.004306
 20
186.000013
 30
0.0
 11
5.0
 21
186.000013
 31
0.0
  0
LINE
  5
1E3
330
1F
100
AcDbEntity
  8
BUMPER_PLATES
 62
     7
100
AcDbLine
 10
5.0
 20
186.000013
 30
0.0
 11
5.0
 21
189.000013
 31
0.0
  0
LINE
  5
1E4
330
1F
100
AcDbEntity
  8
BUMPER_PLATES
 62
     7
100
AcDbLine
 10
5.008819
 20
181.000015
 30
0.0
 11
104.999999
 21
181.000015
 31
0.0
  0
LINE
  5
1E5
330
1F
100
AcDbEntity
  8
BUMPER_PLATES
 62
     7
100
AcDbLine
 10
104.999999
 20
181.000015
 30
0.0
 11
104.999999
 21
178.000012
 31
0.0
  0
LINE
  5
1E6
330
1F
100
AcDbEntity
  8
BUMPER_PLATES
 62
     7
100
AcDbLine
 10
104.999999
 20
178.000012
 30
0.0
 11
5.008819
 21
178.000012
 31
0.0
  0
LINE
  5
1E7
330
1F
100
AcDbEntity
  8
BUMPER_PLATES
 62
     7
100
AcDbLine
 10
5.008819
 20
178.000012
 30
0.0
 11
5.008819
 21
181.000015
 31
0.0
  0
SPLINE
  5
1F4
330
1F
100
AcDbEntity
  8
WHEELS
 62
     7
100
AcDbSpline
210
0.0
220
0.0
230
1.0
 70
     8
 71
     3
 72
     8
 73
     4
 74
     0
 42
0.000000001
 43
0.0000001
 40
0.0
 40
0.0
 40
0.0
 40
0.0
 40
1.0
 40
1.0
 40
1.0
 40
1.0
 10
148.434515
 20
64.955215
 30
0.0
 10
139.661289
 20
65.21032
 30
0.0
 10
131.158417
 20
61.90321
 30
0.0
 10
124.863116
 20
55.787348
 30
0.0
  0
SPLINE
  5
1F5
330
1F
100
AcDbEntity
  8
WHEELS
 62
     7
100
AcDbSpline
210
0.0
220
0.0
230
1.0
 70
     8
 71
     3
 72
     8
 73
     4
 74
     0
 42
0.000000001
 43
0.0000001
 40
0.0
 40
0.0
 40
0.0
 40
0.0
 40
1.0
 40
1.0
 40
1.0
 40
1.0
 10
124.863116
 20
55.787348
 30
0.0
 10
118.567815
 20
49.671485
 30
0.0
 10
115.016273
 20
41.267775
 30
0.0
 10
115.01764
 20
32.49084
 30
0.0
  0
SPLINE
  5
1F6
330
1F
100
AcDbEntity
  8
WHEELS
 62
     7
100
AcDbSpline
210
0.0
220
0.0
230
1.0
 70
     8
 71
     3
 72
     8
 73
     4
 74
     0
 42
0.000000001
 43
0.0000001
 40
0.0
 40
0.0
 40
0.0
 40
0.0
 40
1.0
 40
1.0
 40
1.0
 40
1.0
 10
115.01764
 20
32.49084
 30
0.0
 10
115.01764
 20
20.889285
 30
0.0
 10
121.206996
 20
10.169006
 30
0.0
 10
131.254238
 20
4.368229
 30
0.0
  0
SPLINE
  5
1F7
330
1F
100
AcDbEntity
  8
WHEELS
 62
     7
100
AcDbSpline
210
0.0
220
0.0
230
1.0
 70
     8
 71
     3
 72
     8
 73
     4
 74
     0
 42
0.000000001
 43
0.0000001
 40
0.0
 40
0.0
 40
0.0
 40
0.0
 40
1.0
 40
1.0
 40
1.0
 40
1.0
 10
131.254238
 20
4.368229
 30
0.0
 10
141.301479
 20
-1.432549
 30
0.0
 10
153.680191
 20
-1.432549
 30
0.0
 10
163.727432
 20
4.368229
 30
0.0
  0
SPLINE
  5
1F8
330
1F
100
AcDbEntity
  8
WHEELS
 62
     7
100
AcDbSpline
210
0.0
220
0.0
230
1.0
 70
     8
 71
     3
 72
     8
 73
     4
 74
     0
 42
0.000000001
 43
0.0000001
 40
0.0
 40
0.0
 40
0.0
 40
0.0
 40
1.0
 40
1.0
 40
1.0
 40
1.0
 10
163.727432
 20
4.368229
 30
0.0
 10
173.774673
 20
10.169006
 30
0.0
 10
179.964029
 20
20.889285
 30
0.0
 10
179.964029
 20
32.49084
 30
0.0
  0
SPLINE
  5
1F9
330
1F
100
AcDbEntity
  8
WHEELS
 62
     7
100
AcDbSpline
210
0.0
220
0.0
230
1.0
 70
     8
 71
     3
 72
     8
 73
     4
 74
     0
 42
0.000000001
 43
0.0000001
 40
0.0
 40
0.0
 40
0.0
 40
0.0
 40
1.0
 40
1.0
 40
1.0
 40
1.0
 10
179.964029
 20
32.49084
 30
0.0
 10
179.966761
 20
50.059742
 30
0.0
 10
165.995999
 20
64.444741
 30
0.0
 10
148.434515
 20
64.955215
 30
0.0
  0
LINE
  5
1FA
330
1F
100
AcDbEntity
  8
WHEELS
 62
     7
100
AcDbLine
 10
148.434515
 20
64.955215
 30
0.0
 11
148.434515
 21
64.955215
 31
0.0
  0
SPLINE
  5
1FB
330
1F
100
AcDbEntity
  8
WHEELS
 62
     7
100
AcDbSpline
210
0.0
220
0.0
230
1.0
 70
     8
 71
     3
 72
     8
 73
     4
 74
     0
 42
0.000000001
 43
0.0000001
 40
0.0
 40
0.0
 40
0.0
 40
0.0
 40
1.0
 40
1.0
 40
1.0
 40
1.0
 10
137.366113
 20
44.229521
 30
0.0
 10
137.847887
 20
44.263791
 30
0.0
 10
138.322188
 20
44.09599
 30
0.0
 10
138.675226
 20
43.766376
 30
0.0
  0
SPLINE
  5
1FC
330
1F
100
AcDbEntity
  8
WHEELS
 62
     7
100
AcDbSpline
210
0.0
220
0.0
230
1.0
 70
     8
 71
     3
 72
     8
 73
     4
 74
     0
 42
0.000000001
 43
0.0000001
 40
0.0
 40
0.0
 40
0.0
 40
0.0
 40
1.0
 40
1.0
 40
1.0
 40
1.0
 10
138.675226
 20
43.766376
 30
0.0
 10
139.028264
 20
43.436762
 30
0.0
 10
139.228181
 20
42.975078
 30
0.0
 10
139.227015
 20
42.492087
 30
0.0
  0
SPLINE
  5
1FD
330
1F
100
AcDbEntity
  8
WHEELS
 62
     7
100
AcDbSpline
210
0.0
220
0.0
230
1.0
 70
     8
 71
     3
 72
     8
 73
     4
 74
     0
 42
0.000000001
 43
0.0000001
 40
0.0
 40
0.0
 40
0.0
 40
0.0
 40
1.0
 40
1.0
 40
1.0
 40
1.0
 10
139.227015
 20
42.492087
 30
0.0
 10
139.213038
 20
41.542503
 30
0.0
 10
138.439272
 20
40.780043
 30
0.0
 10
137.489585
 20
40.780043
 30
0.0
  0
SPLINE
  5
1FE
330
1F
100
AcDbEntity
  8
WHEELS
 62
     7
100
AcDbSpline
210
0.0
220
0.0
230
1.0
 70
     8
 71
     3
 72
     8
 73
     4
 74
     0
 42
0.000000001
 43
0.0000001
 40
0.0
 40
0.0
 40
0.0
 40
0.0
 40
1.0
 40
1.0
 40
1.0
 40
1.0
 10
137.489585
 20
40.780043
 30
0.0
 10
136.539897
 20
40.780043
 30
0.0
 10
135.766132
 20
41.542503
 30
0.0
 10
135.752154
 20
42.492087
 30
0.0
  0
SPLINE
  5
1FF
330
1F
100
AcDbEntity
  8
WHEELS
 62
     7
100
AcDbSpline
210
0.0
220
0.0
230
1.0
 70
     8
 71
     3
 72
     8
 73
     4
 74
     0
 42
0.000000001
 43
0.0000001
 40
0.0
 40
0.0
 40
0.0
 40
0.0
 40
1.0
 40
1.0
 40
1.0
 40
1.0
 10
135.752154
 20
42.492087
 30
0.0
 10
135.749936
 20
43.405388
 30
0.0
 10
136.455125
 20
44.164527
 30
0.0
 10
137.366113
 20
44.229521
 30
0.0
  0
LINE
  5
200
330
1F
100
AcDbEntity
  8
WHEELS
 62
     7
100
AcDbLine
 10
137.366113
 20
44.229521
 30
0.0
 11
137.366113
 21
44.229521
 31
0.0
  0
SPLINE
  5
201
330
1F
100
AcDbEntity
  8
WHEELS
 62
     7
100
AcDbSpline
210
0.0
220
0.0
230
1.0
 70
     8
 71
     3
 72
     8
 73
     4
 74
     0
 42
0.000000001
 43
0.0000001
 40
0.0
 40
0.0
 40
0.0
 40
0.0
 40
1.0
 40
1.0
 40
1.0
 40
1.0
 10
157.359796
 20
44.229521
 30
0.0
 10
157.84157
 20
44.26379
 30
0.0
 10
158.31587
 20
44.095988
 30
0.0
 10
158.668907
 20
43.766374
 30
0.0
  0
SPLINE
  5
202
330
1F
100
AcDbEntity
  8
WHEELS
 62
     7
100
AcDbSpline
210
0.0
220
0.0
230
1.0
 70
     8
 71
     3
 72
     8
 73
     4
 74
     0
 42
0.000000001
 43
0.0000001
 40
0.0
 40
0.0
 40
0.0
 40
0.0
 40
1.0
 40
1.0
 40
1.0
 40
1.0
 10
158.668907
 20
43.766374
 30
0.0
 10
159.021945
 20
43.43676
 30
0.0
 10
159.221861
 20
42.975078
 30
0.0
 10
159.220696
 20
42.492087
 30
0.0
  0
SPLINE
  5
203
330
1F
100
AcDbEntity
  8
WHEELS
 62
     7
100
AcDbSpline
210
0.0
220
0.0
230
1.0
 70
     8
 71
     3
 72
     8
 73
     4
 74
     0
 42
0.000000001
 43
0.0000001
 40
0.0
 40
0.0
 40
0.0
 40
0.0
 40
1.0
 40
1.0
 40
1.0
 40
1.0
 10
159.220696
 20
42.492087
 30
0.0
 10
159.206704
 20
41.542513
 30
0.0
 10
158.432943
 20
40.78007
 30
0.0
 10
157.483265
 20
40.78007
 30
0.0
  0
SPLINE
  5
204
330
1F
100
AcDbEntity
  8
WHEELS
 62
     7
100
AcDbSpline
210
0.0
220
0.0
230
1.0
 70
     8
 71
     3
 72
     8
 73
     4
 74
     0
 42
0.000000001
 43
0.0000001
 40
0.0
 40
0.0
 40
0.0
 40
0.0
 40
1.0
 40
1.0
 40
1.0
 40
1.0
 10
157.483265
 20
40.78007
 30
0.0
 10
156.533588
 20
40.78007
 30
0.0
 10
155.759827
 20
41.542513
 30
0.0
 10
155.745835
 20
42.492087
 30
0.0
  0
SPLINE
  5
205
330
1F
100
AcDbEntity
  8
WHEELS
 62
     7
100
AcDbSpline
210
0.0
220
0.0
230
1.0
 70
     8
 71
     3
 72
     8
 73
     4
 74
     0
 42
0.000000001
 43
0.0000001
 40
0.0
 40
0.0
 40
0.0
 40
0.0
 40
1.0
 40
1.0
 40
1.0
 40
1.0
 10
155.745835
 20
42.492087
 30
0.0
 10
155.743617
 20
43.405389
 30
0.0
 10
156.448808
 20
44.164528
 30
0.0
 10
157.359796
 20
44.229521
 30
0.0
  0
LINE
  5
206
330
1F
100
AcDbEntity
  8
WHEELS
 62
     7
100
AcDbLine
 10
157.359796
 20
44.229521
 30
0.0
 11
157.359796
 21
44.229521
 31
0.0
  0
SPLINE
  5
207
330
1F
100
AcDbEntity
  8
WHEELS
 62
     7
100
AcDbSpline
210
0.0
220
0.0
230
1.0
 70
     8
 71
     3
 72
     8
 73
     4
 74
     0
 42
0.000000001
 43
0.0000001
 40
0.0
 40
0.0
 40
0.0
 40
0.0
 40
1.0
 40
1.0
 40
1.0
 40
1.0
 10
137.366113
 20
39.228896
 30
0.0
 10
137.847887
 20
39.263165
 30
0.0
 10
138.322187
 20
39.095365
 30
0.0
 10
138.675225
 20
38.765752
 30
0.0
  0
SPLINE
  5
208
330
1F
100
AcDbEntity
  8
WHEELS
 62
     7
100
AcDbSpline
210
0.0
220
0.0
230
1.0
 70
     8
 71
     3
 72
     8
 73
     4
 74
     0
 42
0.000000001
 43
0.0000001
 40
0.0
 40
0.0
 40
0.0
 40
0.0
 40
1.0
 40
1.0
 40
1.0
 40
1.0
 10
138.675225
 20
38.765752
 30
0.0
 10
139.028263
 20
38.436138
 30
0.0
 10
139.22818
 20
37.974455
 30
0.0
 10
139.227015
 20
37.491465
 30
0.0
  0
SPLINE
  5
209
330
1F
100
AcDbEntity
  8
WHEELS
 62
     7
100
AcDbSpline
210
0.0
220
0.0
230
1.0
 70
     8
 71
     3
 72
     8
 73
     4
 74
     0
 42
0.000000001
 43
0.0000001
 40
0.0
 40
0.0
 40
0.0
 40
0.0
 40
1.0
 40
1.0
 40
1.0
 40
1.0
 10
139.227015
 20
37.491465
 30
0.0
 10
139.213036
 20
36.541882
 30
0.0
 10
138.439271
 20
35.779425
 30
0.0
 10
137.489585
 20
35.779425
 30
0.0
  0
SPLINE
  5
20A
330
1F
100
AcDbEntity
  8
WHEELS
 62
     7
100
AcDbSpline
210
0.0
220
0.0
230
1.0
 70
     8
 71
     3
 72
     8
 73
     4
 74
     0
 42
0.000000001
 43
0.0000001
 40
0.0
 40
0.0
 40
0.0
 40
0.0
 40
1.0
 40
1.0
 40
1.0
 40
1.0
 10
137.489585
 20
35.779425
 30
0.0
 10
136.539899
 20
35.779425
 30
0.0
 10
135.766134
 20
36.541882
 30
0.0
 10
135.752154
 20
37.491465
 30
0.0
  0
SPLINE
  5
20B
330
1F
100
AcDbEntity
  8
WHEELS
 62
     7
100
AcDbSpline
210
0.0
220
0.0
230
1.0
 70
     8
 71
     3
 72
     8
 73
     4
 74
     0
 42
0.000000001
 43
0.0000001
 40
0.0
 40
0.0
 40
0.0
 40
0.0
 40
1.0
 40
1.0
 40
1.0
 40
1.0
 10
135.752154
 20
37.491465
 30
0.0
 10
135.749938
 20
38.404764
 30
0.0
 10
136.455126
 20
39.163902
 30
0.0
 10
137.366113
 20
39.228896
 30
0.0
  0
LINE
  5
20C
330
1F
100
AcDbEntity
  8
WHEELS
 62
     7
100
AcDbLine
 10
137.366113
 20
39.228896
 30
0.0
 11
137.366113
 21
39.228896
 31
0.0
  0
SPLINE
  5
20D
330
1F
100
AcDbEntity
  8
WHEELS
 62
     7
100
AcDbSpline
210
0.0
220
0.0
230
1.0
 70
     8
 71
     3
 72
     8
 73
     4
 74
     0
 42
0.000000001
 43
0.0000001
 40
0.0
 40
0.0
 40
0.0
 40
0.0
 40
1.0
 40
1.0
 40
1.0
 40
1.0
 10
157.359796
 20
39.228896
 30
0.0
 10
157.84157
 20
39.263165
 30
0.0
 10
158.315869
 20
39.095364
 30
0.0
 10
158.668906
 20
38.76575
 30
0.0
  0
SPLINE
  5
20E
330
1F
100
AcDbEntity
  8
WHEELS
 62
     7
100
AcDbSpline
210
0.0
220
0.0
230
1.0
 70
     8
 71
     3
 72
     8
 73
     4
 74
     0
 42
0.000000001
 43
0.0000001
 40
0.0
 40
0.0
 40
0.0
 40
0.0
 40
1.0
 40
1.0
 40
1.0
 40
1.0
 10
158.668906
 20
38.76575
 30
0.0
 10
159.021944
 20
38.436137
 30
0.0
 10
159.221861
 20
37.974455
 30
0.0
 10
159.220696
 20
37.491465
 30
0.0
  0
SPLINE
  5
20F
330
1F
100
AcDbEntity
  8
WHEELS
 62
     7
100
AcDbSpline
210
0.0
220
0.0
230
1.0
 70
     8
 71
     3
 72
     8
 73
     4
 74
     0
 42
0.000000001
 43
0.0000001
 40
0.0
 40
0.0
 40
0.0
 40
0.0
 40
1.0
 40
1.0
 40
1.0
 40
1.0
 10
159.220696
 20
37.491465
 30
0.0
 10
159.206706
 20
36.541889
 30
0.0
 10
158.432944
 20
35.779444
 30
0.0
 10
157.483265
 20
35.779444
 30
0.0
  0
SPLINE
  5
210
330
1F
100
AcDbEntity
  8
WHEELS
 62
     7
100
AcDbSpline
210
0.0
220
0.0
230
1.0
 70
     8
 71
     3
 72
     8
 73
     4
 74
     0
 42
0.000000001
 43
0.0000001
 40
0.0
 40
0.0
 40
0.0
 40
0.0
 40
1.0
 40
1.0
 40
1.0
 40
1.0
 10
157.483265
 20
35.779444
 30
0.0
 10
156.533586
 20
35.779444
 30
0.0
 10
155.759825
 20
36.541889
 30
0.0
 10
155.745835
 20
37.491465
 30
0.0
  0
SPLINE
  5
211
330
1F
100
AcDbEntity
  8
WHEELS
 62
     7
100
AcDbSpline
210
0.0
220
0.0
230
1.0
 70
     8
 71
     3
 72
     8
 73
     4
 74
     0
 42
0.000000001
 43
0.0000001
 40
0.0
 40
0.0
 40
0.0
 40
0.0
 40
1.0
 40
1.0
 40
1.0
 40
1.0
 10
155.745835
 20
37.491465
 30
0.0
 10
155.743618
 20
38.404765
 30
0.0
 10
156.448809
 20
39.163903
 30
0.0
 10
157.359796
 20
39.228896
 30
0.0
  0
LINE
  5
212
330
1F
100
AcDbEntity
  8
WHEELS
 62
     7
100
AcDbLine
 10
157.359796
 20
39.228896
 30
0.0
 11
157.359796
 21
39.228896
 31
0.0
  0
SPLINE
  5
213
330
1F
100
AcDbEntity
  8
WHEELS
 62
     7
100
AcDbSpline
210
0.0
220
0.0
230
1.0
 70
     8
 71
     3
 72
     8
 73
     4
 74
     0
 42
0.000000001
 43
0.0000001
 40
0.0
 40
0.0
 40
0.0
 40
0.0
 40
1.0
 40
1.0
 40
1.0
 40
1.0
 10
147.56139
 20
34.98674
 30
0.0
 10
148.912303
 20
34.948756
 30
0.0
 10
149.987494
 20
33.842287
 30
0.0
 10
149.986735
 20
32.49084
 30
0.0
  0
SPLINE
  5
214
330
1F
100
AcDbEntity
  8
WHEELS
 62
     7
100
AcDbSpline
210
0.0
220
0.0
230
1.0
 70
     8
 71
     3
 72
     8
 73
     4
 74
     0
 42
0.000000001
 43
0.0000001
 40
0.0
 40
0.0
 40
0.0
 40
0.0
 40
1.0
 40
1.0
 40
1.0
 40
1.0
 10
149.986735
 20
32.49084
 30
0.0
 10
149.985027
 20
31.113601
 30
0.0
 10
148.868074
 20
29.998032
 30
0.0
 10
147.490833
 20
29.998032
 30
0.0
  0
SPLINE
  5
215
330
1F
100
AcDbEntity
  8
WHEELS
 62
     7
100
AcDbSpline
210
0.0
220
0.0
230
1.0
 70
     8
 71
     3
 72
     8
 73
     4
 74
     0
 42
0.000000001
 43
0.0000001
 40
0.0
 40
0.0
 40
0.0
 40
0.0
 40
1.0
 40
1.0
 40
1.0
 40
1.0
 10
147.490833
 20
29.998032
 30
0.0
 10
146.113593
 20
29.998032
 30
0.0
 10
144.99664
 20
31.113601
 30
0.0
 10
144.994932
 20
32.49084
 30
0.0
  0
SPLINE
  5
216
330
1F
100
AcDbEntity
  8
WHEELS
 62
     7
100
AcDbSpline
210
0.0
220
0.0
230
1.0
 70
     8
 71
     3
 72
     8
 73
     4
 74
     0
 42
0.000000001
 43
0.0000001
 40
0.0
 40
0.0
 40
0.0
 40
0.0
 40
1.0
 40
1.0
 40
1.0
 40
1.0
 10
144.994932
 20
32.49084
 30
0.0
 10
144.994547
 20
33.165239
 30
0.0
 10
145.267134
 20
33.811081
 30
0.0
 10
145.750605
 20
34.28126
 30
0.0
  0
SPLINE
  5
217
330
1F
100
AcDbEntity
  8
WHEELS
 62
     7
100
AcDbSpline
210
0.0
220
0.0
230
1.0
 70
     8
 71
     3
 72
     8
 73
     4
 74
     0
 42
0.000000001
 43
0.0000001
 40
0.0
 40
0.0
 40
0.0
 40
0.0
 40
1.0
 40
1.0
 40
1.0
 40
1.0
 10
145.750605
 20
34.28126
 30
0.0
 10
146.234076
 20
34.75144
 30
0.0
 10
146.887265
 20
35.005921
 30
0.0
 10
147.56139
 20
34.98674
 30
0.0
  0
LINE
  5
218
330
1F
100
AcDbEntity
  8
WHEELS
 62
     7
100
AcDbLine
 10
147.56139
 20
34.98674
 30
0.0
 11
147.56139
 21
34.98674
 31
0.0
  0
SPLINE
  5
219
330
1F
100
AcDbEntity
  8
WHEELS
 62
     7
100
AcDbSpline
210
0.0
220
0.0
230
1.0
 70
     8
 71
     3
 72
     8
 73
     4
 74
     0
 42
0.000000001
 43
0.0000001
 40
0.0
 40
0.0
 40
0.0
 40
0.0
 40
1.0
 40
1.0
 40
1.0
 40
1.0
 10
137.366113
 20
29.227646
 30
0.0
 10
137.847887
 20
29.261916
 30
0.0
 10
138.322188
 20
29.094115
 30
0.0
 10
138.675226
 20
28.764501
 30
0.0
  0
SPLINE
  5
21A
330
1F
100
AcDbEntity
  8
WHEELS
 62
     7
100
AcDbSpline
210
0.0
220
0.0
230
1.0
 70
     8
 71
     3
 72
     8
 73
     4
 74
     0
 42
0.000000001
 43
0.0000001
 40
0.0
 40
0.0
 40
0.0
 40
0.0
 40
1.0
 40
1.0
 40
1.0
 40
1.0
 10
138.675226
 20
28.764501
 30
0.0
 10
139.028264
 20
28.434886
 30
0.0
 10
139.228181
 20
27.973203
 30
0.0
 10
139.227015
 20
27.490212
 30
0.0
  0
SPLINE
  5
21B
330
1F
100
AcDbEntity
  8
WHEELS
 62
     7
100
AcDbSpline
210
0.0
220
0.0
230
1.0
 70
     8
 71
     3
 72
     8
 73
     4
 74
     0
 42
0.000000001
 43
0.0000001
 40
0.0
 40
0.0
 40
0.0
 40
0.0
 40
1.0
 40
1.0
 40
1.0
 40
1.0
 10
139.227015
 20
27.490212
 30
0.0
 10
139.213034
 20
26.540631
 30
0.0
 10
138.43927
 20
25.778176
 30
0.0
 10
137.489585
 20
25.778176
 30
0.0
  0
SPLINE
  5
21C
330
1F
100
AcDbEntity
  8
WHEELS
 62
     7
100
AcDbSpline
210
0.0
220
0.0
230
1.0
 70
     8
 71
     3
 72
     8
 73
     4
 74
     0
 42
0.000000001
 43
0.0000001
 40
0.0
 40
0.0
 40
0.0
 40
0.0
 40
1.0
 40
1.0
 40
1.0
 40
1.0
 10
137.489585
 20
25.778176
 30
0.0
 10
136.5399
 20
25.778176
 30
0.0
 10
135.766136
 20
26.540631
 30
0.0
 10
135.752154
 20
27.490212
 30
0.0
  0
SPLINE
  5
21D
330
1F
100
AcDbEntity
  8
WHEELS
 62
     7
100
AcDbSpline
210
0.0
220
0.0
230
1.0
 70
     8
 71
     3
 72
     8
 73
     4
 74
     0
 42
0.000000001
 43
0.0000001
 40
0.0
 40
0.0
 40
0.0
 40
0.0
 40
1.0
 40
1.0
 40
1.0
 40
1.0
 10
135.752154
 20
27.490212
 30
0.0
 10
135.749936
 20
28.403513
 30
0.0
 10
136.455125
 20
29.162652
 30
0.0
 10
137.366113
 20
29.227646
 30
0.0
  0
LINE
  5
21E
330
1F
100
AcDbEntity
  8
WHEELS
 62
     7
100
AcDbLine
 10
137.366113
 20
29.227646
 30
0.0
 11
137.366113
 21
29.227646
 31
0.0
  0
SPLINE
  5
21F
330
1F
100
AcDbEntity
  8
WHEELS
 62
     7
100
AcDbSpline
210
0.0
220
0.0
230
1.0
 70
     8
 71
     3
 72
     8
 73
     4
 74
     0
 42
0.000000001
 43
0.0000001
 40
0.0
 40
0.0
 40
0.0
 40
0.0
 40
1.0
 40
1.0
 40
1.0
 40
1.0
 10
157.359796
 20
29.227646
 30
0.0
 10
157.84157
 20
29.261915
 30
0.0
 10
158.31587
 20
29.094114
 30
0.0
 10
158.668908
 20
28.764499
 30
0.0
  0
SPLINE
  5
220
330
1F
100
AcDbEntity
  8
WHEELS
 62
     7
100
AcDbSpline
210
0.0
220
0.0
230
1.0
 70
     8
 71
     3
 72
     8
 73
     4
 74
     0
 42
0.000000001
 43
0.0000001
 40
0.0
 40
0.0
 40
0.0
 40
0.0
 40
1.0
 40
1.0
 40
1.0
 40
1.0
 10
158.668908
 20
28.764499
 30
0.0
 10
159.021945
 20
28.434885
 30
0.0
 10
159.221861
 20
27.973203
 30
0.0
 10
159.220696
 20
27.490212
 30
0.0
  0
SPLINE
  5
221
330
1F
100
AcDbEntity
  8
WHEELS
 62
     7
100
AcDbSpline
210
0.0
220
0.0
230
1.0
 70
     8
 71
     3
 72
     8
 73
     4
 74
     0
 42
0.000000001
 43
0.0000001
 40
0.0
 40
0.0
 40
0.0
 40
0.0
 40
1.0
 40
1.0
 40
1.0
 40
1.0
 10
159.220696
 20
27.490212
 30
0.0
 10
159.206708
 20
26.540635
 30
0.0
 10
158.432946
 20
25.778187
 30
0.0
 10
157.483265
 20
25.778187
 30
0.0
  0
SPLINE
  5
222
330
1F
100
AcDbEntity
  8
WHEELS
 62
     7
100
AcDbSpline
210
0.0
220
0.0
230
1.0
 70
     8
 71
     3
 72
     8
 73
     4
 74
     0
 42
0.000000001
 43
0.0000001
 40
0.0
 40
0.0
 40
0.0
 40
0.0
 40
1.0
 40
1.0
 40
1.0
 40
1.0
 10
157.483265
 20
25.778187
 30
0.0
 10
156.533585
 20
25.778187
 30
0.0
 10
155.759823
 20
26.540635
 30
0.0
 10
155.745835
 20
27.490212
 30
0.0
  0
SPLINE
  5
223
330
1F
100
AcDbEntity
  8
WHEELS
 62
     7
100
AcDbSpline
210
0.0
220
0.0
230
1.0
 70
     8
 71
     3
 72
     8
 73
     4
 74
     0
 42
0.000000001
 43
0.0000001
 40
0.0
 40
0.0
 40
0.0
 40
0.0
 40
1.0
 40
1.0
 40
1.0
 40
1.0
 10
155.745835
 20
27.490212
 30
0.0
 10
155.743617
 20
28.403514
 30
0.0
 10
156.448808
 20
29.162653
 30
0.0
 10
157.359796
 20
29.227646
 30
0.0
  0
LINE
  5
224
330
1F
100
AcDbEntity
  8
WHEELS
 62
     7
100
AcDbLine
 10
157.359796
 20
29.227646
 30
0.0
 11
157.359796
 21
29.227646
 31
0.0
  0
SPLINE
  5
225
330
1F
100
AcDbEntity
  8
WHEELS
 62
     7
100
AcDbSpline
210
0.0
220
0.0
230
1.0
 70
     8
 71
     3
 72
     8
 73
     4
 74
     0
 42
0.000000001
 43
0.0000001
 40
0.0
 40
0.0
 40
0.0
 40
0.0
 40
1.0
 40
1.0
 40
1.0
 40
1.0
 10
137.366113
 20
24.227018
 30
0.0
 10
137.847886
 20
24.261288
 30
0.0
 10
138.322186
 20
24.093488
 30
0.0
 10
138.675224
 20
23.763875
 30
0.0
  0
SPLINE
  5
226
330
1F
100
AcDbEntity
  8
WHEELS
 62
     7
100
AcDbSpline
210
0.0
220
0.0
230
1.0
 70
     8
 71
     3
 72
     8
 73
     4
 74
     0
 42
0.000000001
 43
0.0000001
 40
0.0
 40
0.0
 40
0.0
 40
0.0
 40
1.0
 40
1.0
 40
1.0
 40
1.0
 10
138.675224
 20
23.763875
 30
0.0
 10
139.028262
 20
23.434262
 30
0.0
 10
139.228179
 20
22.97258
 30
0.0
 10
139.227015
 20
22.48959
 30
0.0
  0
SPLINE
  5
227
330
1F
100
AcDbEntity
  8
WHEELS
 62
     7
100
AcDbSpline
210
0.0
220
0.0
230
1.0
 70
     8
 71
     3
 72
     8
 73
     4
 74
     0
 42
0.000000001
 43
0.0000001
 40
0.0
 40
0.0
 40
0.0
 40
0.0
 40
1.0
 40
1.0
 40
1.0
 40
1.0
 10
139.227015
 20
22.48959
 30
0.0
 10
139.213031
 20
21.54001
 30
0.0
 10
138.439268
 20
20.777557
 30
0.0
 10
137.489585
 20
20.777557
 30
0.0
  0
SPLINE
  5
228
330
1F
100
AcDbEntity
  8
WHEELS
 62
     7
100
AcDbSpline
210
0.0
220
0.0
230
1.0
 70
     8
 71
     3
 72
     8
 73
     4
 74
     0
 42
0.000000001
 43
0.0000001
 40
0.0
 40
0.0
 40
0.0
 40
0.0
 40
1.0
 40
1.0
 40
1.0
 40
1.0
 10
137.489585
 20
20.777557
 30
0.0
 10
136.539901
 20
20.777557
 30
0.0
 10
135.766138
 20
21.54001
 30
0.0
 10
135.752154
 20
22.48959
 30
0.0
  0
SPLINE
  5
229
330
1F
100
AcDbEntity
  8
WHEELS
 62
     7
100
AcDbSpline
210
0.0
220
0.0
230
1.0
 70
     8
 71
     3
 72
     8
 73
     4
 74
     0
 42
0.000000001
 43
0.0000001
 40
0.0
 40
0.0
 40
0.0
 40
0.0
 40
1.0
 40
1.0
 40
1.0
 40
1.0
 10
135.752154
 20
22.48959
 30
0.0
 10
135.749939
 20
23.402888
 30
0.0
 10
136.455127
 20
24.162024
 30
0.0
 10
137.366113
 20
24.227018
 30
0.0
  0
LINE
  5
22A
330
1F
100
AcDbEntity
  8
WHEELS
 62
     7
100
AcDbLine
 10
137.366113
 20
24.227018
 30
0.0
 11
137.366113
 21
24.227018
 31
0.0
  0
SPLINE
  5
22B
330
1F
100
AcDbEntity
  8
WHEELS
 62
     7
100
AcDbSpline
210
0.0
220
0.0
230
1.0
 70
     8
 71
     3
 72
     8
 73
     4
 74
     0
 42
0.000000001
 43
0.0000001
 40
0.0
 40
0.0
 40
0.0
 40
0.0
 40
1.0
 40
1.0
 40
1.0
 40
1.0
 10
157.359796
 20
24.227018
 30
0.0
 10
157.841569
 20
24.261287
 30
0.0
 10
158.315868
 20
24.093486
 30
0.0
 10
158.668905
 20
23.763874
 30
0.0
  0
SPLINE
  5
22C
330
1F
100
AcDbEntity
  8
WHEELS
 62
     7
100
AcDbSpline
210
0.0
220
0.0
230
1.0
 70
     8
 71
     3
 72
     8
 73
     4
 74
     0
 42
0.000000001
 43
0.0000001
 40
0.0
 40
0.0
 40
0.0
 40
0.0
 40
1.0
 40
1.0
 40
1.0
 40
1.0
 10
158.668905
 20
23.763874
 30
0.0
 10
159.021943
 20
23.434261
 30
0.0
 10
159.22186
 20
22.972579
 30
0.0
 10
159.220696
 20
22.48959
 30
0.0
  0
SPLINE
  5
22D
330
1F
100
AcDbEntity
  8
WHEELS
 62
     7
100
AcDbSpline
210
0.0
220
0.0
230
1.0
 70
     8
 71
     3
 72
     8
 73
     4
 74
     0
 42
0.000000001
 43
0.0000001
 40
0.0
 40
0.0
 40
0.0
 40
0.0
 40
1.0
 40
1.0
 40
1.0
 40
1.0
 10
159.220696
 20
22.48959
 30
0.0
 10
159.20671
 20
21.540011
 30
0.0
 10
158.432947
 20
20.777561
 30
0.0
 10
157.483265
 20
20.777561
 30
0.0
  0
SPLINE
  5
22E
330
1F
100
AcDbEntity
  8
WHEELS
 62
     7
100
AcDbSpline
210
0.0
220
0.0
230
1.0
 70
     8
 71
     3
 72
     8
 73
     4
 74
     0
 42
0.000000001
 43
0.0000001
 40
0.0
 40
0.0
 40
0.0
 40
0.0
 40
1.0
 40
1.0
 40
1.0
 40
1.0
 10
157.483265
 20
20.777561
 30
0.0
 10
156.533583
 20
20.777561
 30
0.0
 10
155.759821
 20
21.540011
 30
0.0
 10
155.745835
 20
22.48959
 30
0.0
  0
SPLINE
  5
22F
330
1F
100
AcDbEntity
  8
WHEELS
 62
     7
100
AcDbSpline
210
0.0
220
0.0
230
1.0
 70
     8
 71
     3
 72
     8
 73
     4
 74
     0
 42
0.000000001
 43
0.0000001
 40
0.0
 40
0.0
 40
0.0
 40
0.0
 40
1.0
 40
1.0
 40
1.0
 40
1.0
 10
155.745835
 20
22.48959
 30
0.0
 10
155.74362
 20
23.402889
 30
0.0
 10
156.44881
 20
24.162026
 30
0.0
 10
157.359796
 20
24.227018
 30
0.0
  0
LINE
  5
230
330
1F
100
AcDbEntity
  8
WHEELS
 62
     7
100
AcDbLine
 10
157.359796
 20
24.227018
 30
0.0
 11
157.359796
 21
24.227018
 31
0.0
  0
SPLINE
  5
231
330
1F
100
AcDbEntity
  8
WHEELS
 62
     7
100
AcDbSpline
210
0.0
220
0.0
230
1.0
 70
     8
 71
     3
 72
     8
 73
     4
 74
     0
 42
0.000000001
 43
0.0000001
 40
0.0
 40
0.0
 40
0.0
 40
0.0
 40
1.0
 40
1.0
 40
1.0
 40
1.0
 10
148.434518
 20
134.955214
 30
0.0
 10
139.661291
 20
135.210319
 30
0.0
 10
131.158419
 20
131.90321
 30
0.0
 10
124.863117
 20
125.787347
 30
0.0
  0
SPLINE
  5
232
330
1F
100
AcDbEntity
  8
WHEELS
 62
     7
100
AcDbSpline
210
0.0
220
0.0
230
1.0
 70
     8
 71
     3
 72
     8
 73
     4
 74
     0
 42
0.000000001
 43
0.0000001
 40
0.0
 40
0.0
 40
0.0
 40
0.0
 40
1.0
 40
1.0
 40
1.0
 40
1.0
 10
124.863117
 20
125.787347
 30
0.0
 10
118.567816
 20
119.671485
 30
0.0
 10
115.016273
 20
111.267774
 30
0.0
 10
115.01764
 20
102.490839
 30
0.0
  0
SPLINE
  5
233
330
1F
100
AcDbEntity
  8
WHEELS
 62
     7
100
AcDbSpline
210
0.0
220
0.0
230
1.0
 70
     8
 71
     3
 72
     8
 73
     4
 74
     0
 42
0.000000001
 43
0.0000001
 40
0.0
 40
0.0
 40
0.0
 40
0.0
 40
1.0
 40
1.0
 40
1.0
 40
1.0
 10
115.01764
 20
102.490839
 30
0.0
 10
115.01764
 20
90.889284
 30
0.0
 10
121.206996
 20
80.169005
 30
0.0
 10
131.254238
 20
74.368227
 30
0.0
  0
SPLINE
  5
234
330
1F
100
AcDbEntity
  8
WHEELS
 62
     7
100
AcDbSpline
210
0.0
220
0.0
230
1.0
 70
     8
 71
     3
 72
     8
 73
     4
 74
     0
 42
0.000000001
 43
0.0000001
 40
0.0
 40
0.0
 40
0.0
 40
0.0
 40
1.0
 40
1.0
 40
1.0
 40
1.0
 10
131.254238
 20
74.368227
 30
0.0
 10
141.301479
 20
68.56745
 30
0.0
 10
153.680191
 20
68.56745
 30
0.0
 10
163.727432
 20
74.368227
 30
0.0
  0
SPLINE
  5
235
330
1F
100
AcDbEntity
  8
WHEELS
 62
     7
100
AcDbSpline
210
0.0
220
0.0
230
1.0
 70
     8
 71
     3
 72
     8
 73
     4
 74
     0
 42
0.000000001
 43
0.0000001
 40
0.0
 40
0.0
 40
0.0
 40
0.0
 40
1.0
 40
1.0
 40
1.0
 40
1.0
 10
163.727432
 20
74.368227
 30
0.0
 10
173.774673
 20
80.169005
 30
0.0
 10
179.964029
 20
90.889284
 30
0.0
 10
179.964029
 20
102.490839
 30
0.0
  0
SPLINE
  5
236
330
1F
100
AcDbEntity
  8
WHEELS
 62
     7
100
AcDbSpline
210
0.0
220
0.0
230
1.0
 70
     8
 71
     3
 72
     8
 73
     4
 74
     0
 42
0.000000001
 43
0.0000001
 40
0.0
 40
0.0
 40
0.0
 40
0.0
 40
1.0
 40
1.0
 40
1.0
 40
1.0
 10
179.964029
 20
102.490839
 30
0.0
 10
179.966761
 20
120.059739
 30
0.0
 10
165.996001
 20
134.444738
 30
0.0
 10
148.434518
 20
134.955214
 30
0.0
  0
LINE
  5
237
330
1F
100
AcDbEntity
  8
WHEELS
 62
     7
100
AcDbLine
 10
148.434518
 20
134.955214
 30
0.0
 11
148.434518
 21
134.955214
 31
0.0
  0
SPLINE
  5
238
330
1F
100
AcDbEntity
  8
WHEELS
 62
     7
100
AcDbSpline
210
0.0
220
0.0
230
1.0
 70
     8
 71
     3
 72
     8
 73
     4
 74
     0
 42
0.000000001
 43
0.0000001
 40
0.0
 40
0.0
 40
0.0
 40
0.0
 40
1.0
 40
1.0
 40
1.0
 40
1.0
 10
137.36611
 20
114.229519
 30
0.0
 10
137.847884
 20
114.26379
 30
0.0
 10
138.322186
 20
114.09599
 30
0.0
 10
138.675224
 20
113.766376
 30
0.0
  0
SPLINE
  5
239
330
1F
100
AcDbEntity
  8
WHEELS
 62
     7
100
AcDbSpline
210
0.0
220
0.0
230
1.0
 70
     8
 71
     3
 72
     8
 73
     4
 74
     0
 42
0.000000001
 43
0.0000001
 40
0.0
 40
0.0
 40
0.0
 40
0.0
 40
1.0
 40
1.0
 40
1.0
 40
1.0
 10
138.675224
 20
113.766376
 30
0.0
 10
139.028263
 20
113.436762
 30
0.0
 10
139.22818
 20
112.975079
 30
0.0
 10
139.227015
 20
112.492089
 30
0.0
  0
SPLINE
  5
23A
330
1F
100
AcDbEntity
  8
WHEELS
 62
     7
100
AcDbSpline
210
0.0
220
0.0
230
1.0
 70
     8
 71
     3
 72
     8
 73
     4
 74
     0
 42
0.000000001
 43
0.0000001
 40
0.0
 40
0.0
 40
0.0
 40
0.0
 40
1.0
 40
1.0
 40
1.0
 40
1.0
 10
139.227015
 20
112.492089
 30
0.0
 10
139.213038
 20
111.542504
 30
0.0
 10
138.439272
 20
110.780044
 30
0.0
 10
137.489585
 20
110.780044
 30
0.0
  0
SPLINE
  5
23B
330
1F
100
AcDbEntity
  8
WHEELS
 62
     7
100
AcDbSpline
210
0.0
220
0.0
230
1.0
 70
     8
 71
     3
 72
     8
 73
     4
 74
     0
 42
0.000000001
 43
0.0000001
 40
0.0
 40
0.0
 40
0.0
 40
0.0
 40
1.0
 40
1.0
 40
1.0
 40
1.0
 10
137.489585
 20
110.780044
 30
0.0
 10
136.539897
 20
110.780044
 30
0.0
 10
135.766132
 20
111.542504
 30
0.0
 10
135.752154
 20
112.492089
 30
0.0
  0
SPLINE
  5
23C
330
1F
100
AcDbEntity
  8
WHEELS
 62
     7
100
AcDbSpline
210
0.0
220
0.0
230
1.0
 70
     8
 71
     3
 72
     8
 73
     4
 74
     0
 42
0.000000001
 43
0.0000001
 40
0.0
 40
0.0
 40
0.0
 40
0.0
 40
1.0
 40
1.0
 40
1.0
 40
1.0
 10
135.752154
 20
112.492089
 30
0.0
 10
135.749937
 20
113.405387
 30
0.0
 10
136.455125
 20
114.164524
 30
0.0
 10
137.36611
 20
114.229519
 30
0.0
  0
LINE
  5
23D
330
1F
100
AcDbEntity
  8
WHEELS
 62
     7
100
AcDbLine
 10
137.36611
 20
114.229519
 30
0.0
 11
137.36611
 21
114.229519
 31
0.0
  0
SPLINE
  5
23E
330
1F
100
AcDbEntity
  8
WHEELS
 62
     7
100
AcDbSpline
210
0.0
220
0.0
230
1.0
 70
     8
 71
     3
 72
     8
 73
     4
 74
     0
 42
0.000000001
 43
0.0000001
 40
0.0
 40
0.0
 40
0.0
 40
0.0
 40
1.0
 40
1.0
 40
1.0
 40
1.0
 10
157.359793
 20
114.229519
 30
0.0
 10
157.841567
 20
114.263788
 30
0.0
 10
158.315866
 20
114.095987
 30
0.0
 10
158.668904
 20
113.766374
 30
0.0
  0
SPLINE
  5
23F
330
1F
100
AcDbEntity
  8
WHEELS
 62
     7
100
AcDbSpline
210
0.0
220
0.0
230
1.0
 70
     8
 71
     3
 72
     8
 73
     4
 74
     0
 42
0.000000001
 43
0.0000001
 40
0.0
 40
0.0
 40
0.0
 40
0.0
 40
1.0
 40
1.0
 40
1.0
 40
1.0
 10
158.668904
 20
113.766374
 30
0.0
 10
159.021941
 20
113.43676
 30
0.0
 10
159.221858
 20
112.975078
 30
0.0
 10
159.220693
 20
112.492089
 30
0.0
  0
SPLINE
  5
240
330
1F
100
AcDbEntity
  8
WHEELS
 62
     7
100
AcDbSpline
210
0.0
220
0.0
230
1.0
 70
     8
 71
     3
 72
     8
 73
     4
 74
     0
 42
0.000000001
 43
0.0000001
 40
0.0
 40
0.0
 40
0.0
 40
0.0
 40
1.0
 40
1.0
 40
1.0
 40
1.0
 10
159.220693
 20
112.492089
 30
0.0
 10
159.206598
 20
111.54259
 30
0.0
 10
158.432868
 20
110.780262
 30
0.0
 10
157.483265
 20
110.780262
 30
0.0
  0
SPLINE
  5
241
330
1F
100
AcDbEntity
  8
WHEELS
 62
     7
100
AcDbSpline
210
0.0
220
0.0
230
1.0
 70
     8
 71
     3
 72
     8
 73
     4
 74
     0
 42
0.000000001
 43
0.0000001
 40
0.0
 40
0.0
 40
0.0
 40
0.0
 40
1.0
 40
1.0
 40
1.0
 40
1.0
 10
157.483265
 20
110.780262
 30
0.0
 10
156.533662
 20
110.780262
 30
0.0
 10
155.759933
 20
111.54259
 30
0.0
 10
155.745838
 20
112.492089
 30
0.0
  0
SPLINE
  5
242
330
1F
100
AcDbEntity
  8
WHEELS
 62
     7
100
AcDbSpline
210
0.0
220
0.0
230
1.0
 70
     8
 71
     3
 72
     8
 73
     4
 74
     0
 42
0.000000001
 43
0.0000001
 40
0.0
 40
0.0
 40
0.0
 40
0.0
 40
1.0
 40
1.0
 40
1.0
 40
1.0
 10
155.745838
 20
112.492089
 30
0.0
 10
155.743621
 20
113.405387
 30
0.0
 10
156.448808
 20
114.164524
 30
0.0
 10
157.359793
 20
114.229519
 30
0.0
  0
LINE
  5
243
330
1F
100
AcDbEntity
  8
WHEELS
 62
     7
100
AcDbLine
 10
157.359793
 20
114.229519
 30
0.0
 11
157.359793
 21
114.229519
 31
0.0
  0
SPLINE
  5
244
330
1F
100
AcDbEntity
  8
WHEELS
 62
     7
100
AcDbSpline
210
0.0
220
0.0
230
1.0
 70
     8
 71
     3
 72
     8
 73
     4
 74
     0
 42
0.000000001
 43
0.0000001
 40
0.0
 40
0.0
 40
0.0
 40
0.0
 40
1.0
 40
1.0
 40
1.0
 40
1.0
 10
137.36611
 20
109.228894
 30
0.0
 10
137.847884
 20
109.263165
 30
0.0
 10
138.322186
 20
109.095365
 30
0.0
 10
138.675224
 20
108.765751
 30
0.0
  0
SPLINE
  5
245
330
1F
100
AcDbEntity
  8
WHEELS
 62
     7
100
AcDbSpline
210
0.0
220
0.0
230
1.0
 70
     8
 71
     3
 72
     8
 73
     4
 74
     0
 42
0.000000001
 43
0.0000001
 40
0.0
 40
0.0
 40
0.0
 40
0.0
 40
1.0
 40
1.0
 40
1.0
 40
1.0
 10
138.675224
 20
108.765751
 30
0.0
 10
139.028263
 20
108.436137
 30
0.0
 10
139.22818
 20
107.974454
 30
0.0
 10
139.227015
 20
107.491464
 30
0.0
  0
SPLINE
  5
246
330
1F
100
AcDbEntity
  8
WHEELS
 62
     7
100
AcDbSpline
210
0.0
220
0.0
230
1.0
 70
     8
 71
     3
 72
     8
 73
     4
 74
     0
 42
0.000000001
 43
0.0000001
 40
0.0
 40
0.0
 40
0.0
 40
0.0
 40
1.0
 40
1.0
 40
1.0
 40
1.0
 10
139.227015
 20
107.491464
 30
0.0
 10
139.213036
 20
106.54188
 30
0.0
 10
138.439271
 20
105.779423
 30
0.0
 10
137.489585
 20
105.779423
 30
0.0
  0
SPLINE
  5
247
330
1F
100
AcDbEntity
  8
WHEELS
 62
     7
100
AcDbSpline
210
0.0
220
0.0
230
1.0
 70
     8
 71
     3
 72
     8
 73
     4
 74
     0
 42
0.000000001
 43
0.0000001
 40
0.0
 40
0.0
 40
0.0
 40
0.0
 40
1.0
 40
1.0
 40
1.0
 40
1.0
 10
137.489585
 20
105.779423
 30
0.0
 10
136.539899
 20
105.779423
 30
0.0
 10
135.766134
 20
106.54188
 30
0.0
 10
135.752154
 20
107.491464
 30
0.0
  0
SPLINE
  5
248
330
1F
100
AcDbEntity
  8
WHEELS
 62
     7
100
AcDbSpline
210
0.0
220
0.0
230
1.0
 70
     8
 71
     3
 72
     8
 73
     4
 74
     0
 42
0.000000001
 43
0.0000001
 40
0.0
 40
0.0
 40
0.0
 40
0.0
 40
1.0
 40
1.0
 40
1.0
 40
1.0
 10
135.752154
 20
107.491464
 30
0.0
 10
135.749938
 20
108.404762
 30
0.0
 10
136.455125
 20
109.163899
 30
0.0
 10
137.36611
 20
109.228894
 30
0.0
  0
LINE
  5
249
330
1F
100
AcDbEntity
  8
WHEELS
 62
     7
100
AcDbLine
 10
137.36611
 20
109.228894
 30
0.0
 11
137.36611
 21
109.228894
 31
0.0
  0
SPLINE
  5
24A
330
1F
100
AcDbEntity
  8
WHEELS
 62
     7
100
AcDbSpline
210
0.0
220
0.0
230
1.0
 70
     8
 71
     3
 72
     8
 73
     4
 74
     0
 42
0.000000001
 43
0.0000001
 40
0.0
 40
0.0
 40
0.0
 40
0.0
 40
1.0
 40
1.0
 40
1.0
 40
1.0
 10
157.359793
 20
109.228894
 30
0.0
 10
157.841567
 20
109.263163
 30
0.0
 10
158.315866
 20
109.095362
 30
0.0
 10
158.668904
 20
108.765749
 30
0.0
  0
SPLINE
  5
24B
330
1F
100
AcDbEntity
  8
WHEELS
 62
     7
100
AcDbSpline
210
0.0
220
0.0
230
1.0
 70
     8
 71
     3
 72
     8
 73
     4
 74
     0
 42
0.000000001
 43
0.0000001
 40
0.0
 40
0.0
 40
0.0
 40
0.0
 40
1.0
 40
1.0
 40
1.0
 40
1.0
 10
158.668904
 20
108.765749
 30
0.0
 10
159.021941
 20
108.436135
 30
0.0
 10
159.221858
 20
107.974453
 30
0.0
 10
159.220693
 20
107.491464
 30
0.0
  0
SPLINE
  5
24C
330
1F
100
AcDbEntity
  8
WHEELS
 62
     7
100
AcDbSpline
210
0.0
220
0.0
230
1.0
 70
     8
 71
     3
 72
     8
 73
     4
 74
     0
 42
0.000000001
 43
0.0000001
 40
0.0
 40
0.0
 40
0.0
 40
0.0
 40
1.0
 40
1.0
 40
1.0
 40
1.0
 10
159.220693
 20
107.491464
 30
0.0
 10
159.2066
 20
106.541964
 30
0.0
 10
158.43287
 20
105.779633
 30
0.0
 10
157.483265
 20
105.779633
 30
0.0
  0
SPLINE
  5
24D
330
1F
100
AcDbEntity
  8
WHEELS
 62
     7
100
AcDbSpline
210
0.0
220
0.0
230
1.0
 70
     8
 71
     3
 72
     8
 73
     4
 74
     0
 42
0.000000001
 43
0.0000001
 40
0.0
 40
0.0
 40
0.0
 40
0.0
 40
1.0
 40
1.0
 40
1.0
 40
1.0
 10
157.483265
 20
105.779633
 30
0.0
 10
156.533661
 20
105.779633
 30
0.0
 10
155.759931
 20
106.541964
 30
0.0
 10
155.745838
 20
107.491464
 30
0.0
  0
SPLINE
  5
24E
330
1F
100
AcDbEntity
  8
WHEELS
 62
     7
100
AcDbSpline
210
0.0
220
0.0
230
1.0
 70
     8
 71
     3
 72
     8
 73
     4
 74
     0
 42
0.000000001
 43
0.0000001
 40
0.0
 40
0.0
 40
0.0
 40
0.0
 40
1.0
 40
1.0
 40
1.0
 40
1.0
 10
155.745838
 20
107.491464
 30
0.0
 10
155.743621
 20
108.404762
 30
0.0
 10
156.448808
 20
109.163899
 30
0.0
 10
157.359793
 20
109.228894
 30
0.0
  0
LINE
  5
24F
330
1F
100
AcDbEntity
  8
WHEELS
 62
     7
100
AcDbLine
 10
157.359793
 20
109.228894
 30
0.0
 11
157.359793
 21
109.228894
 31
0.0
  0
SPLINE
  5
250
330
1F
100
AcDbEntity
  8
WHEELS
 62
     7
100
AcDbSpline
210
0.0
220
0.0
230
1.0
 70
     8
 71
     3
 72
     8
 73
     4
 74
     0
 42
0.000000001
 43
0.0000001
 40
0.0
 40
0.0
 40
0.0
 40
0.0
 40
1.0
 40
1.0
 40
1.0
 40
1.0
 10
147.561387
 20
104.986741
 30
0.0
 10
148.912302
 20
104.948759
 30
0.0
 10
149.987495
 20
103.842287
 30
0.0
 10
149.986735
 20
102.490839
 30
0.0
  0
SPLINE
  5
251
330
1F
100
AcDbEntity
  8
WHEELS
 62
     7
100
AcDbSpline
210
0.0
220
0.0
230
1.0
 70
     8
 71
     3
 72
     8
 73
     4
 74
     0
 42
0.000000001
 43
0.0000001
 40
0.0
 40
0.0
 40
0.0
 40
0.0
 40
1.0
 40
1.0
 40
1.0
 40
1.0
 10
149.986735
 20
102.490839
 30
0.0
 10
149.985856
 20
101.113011
 30
0.0
 10
148.868659
 20
99.996528
 30
0.0
 10
147.490832
 20
99.996528
 30
0.0
  0
SPLINE
  5
252
330
1F
100
AcDbEntity
  8
WHEELS
 62
     7
100
AcDbSpline
210
0.0
220
0.0
230
1.0
 70
     8
 71
     3
 72
     8
 73
     4
 74
     0
 42
0.000000001
 43
0.0000001
 40
0.0
 40
0.0
 40
0.0
 40
0.0
 40
1.0
 40
1.0
 40
1.0
 40
1.0
 10
147.490832
 20
99.996528
 30
0.0
 10
146.113004
 20
99.996528
 30
0.0
 10
144.995808
 20
101.113011
 30
0.0
 10
144.994929
 20
102.490839
 30
0.0
  0
SPLINE
  5
253
330
1F
100
AcDbEntity
  8
WHEELS
 62
     7
100
AcDbSpline
210
0.0
220
0.0
230
1.0
 70
     8
 71
     3
 72
     8
 73
     4
 74
     0
 42
0.000000001
 43
0.0000001
 40
0.0
 40
0.0
 40
0.0
 40
0.0
 40
1.0
 40
1.0
 40
1.0
 40
1.0
 10
144.994929
 20
102.490839
 30
0.0
 10
144.994543
 20
103.165237
 30
0.0
 10
145.26713
 20
103.81108
 30
0.0
 10
145.750601
 20
104.28126
 30
0.0
  0
SPLINE
  5
254
330
1F
100
AcDbEntity
  8
WHEELS
 62
     7
100
AcDbSpline
210
0.0
220
0.0
230
1.0
 70
     8
 71
     3
 72
     8
 73
     4
 74
     0
 42
0.000000001
 43
0.0000001
 40
0.0
 40
0.0
 40
0.0
 40
0.0
 40
1.0
 40
1.0
 40
1.0
 40
1.0
 10
145.750601
 20
104.28126
 30
0.0
 10
146.234073
 20
104.75144
 30
0.0
 10
146.887261
 20
105.005922
 30
0.0
 10
147.561387
 20
104.986741
 30
0.0
  0
LINE
  5
255
330
1F
100
AcDbEntity
  8
WHEELS
 62
     7
100
AcDbLine
 10
147.561387
 20
104.986741
 30
0.0
 11
147.561387
 21
104.986741
 31
0.0
  0
SPLINE
  5
256
330
1F
100
AcDbEntity
  8
WHEELS
 62
     7
100
AcDbSpline
210
0.0
220
0.0
230
1.0
 70
     8
 71
     3
 72
     8
 73
     4
 74
     0
 42
0.000000001
 43
0.0000001
 40
0.0
 40
0.0
 40
0.0
 40
0.0
 40
1.0
 40
1.0
 40
1.0
 40
1.0
 10
137.36611
 20
99.227644
 30
0.0
 10
137.847885
 20
99.261915
 30
0.0
 10
138.322187
 20
99.094114
 30
0.0
 10
138.675225
 20
98.7645
 30
0.0
  0
SPLINE
  5
257
330
1F
100
AcDbEntity
  8
WHEELS
 62
     7
100
AcDbSpline
210
0.0
220
0.0
230
1.0
 70
     8
 71
     3
 72
     8
 73
     4
 74
     0
 42
0.000000001
 43
0.0000001
 40
0.0
 40
0.0
 40
0.0
 40
0.0
 40
1.0
 40
1.0
 40
1.0
 40
1.0
 10
138.675225
 20
98.7645
 30
0.0
 10
139.028264
 20
98.434886
 30
0.0
 10
139.228181
 20
97.973202
 30
0.0
 10
139.227015
 20
97.490211
 30
0.0
  0
SPLINE
  5
258
330
1F
100
AcDbEntity
  8
WHEELS
 62
     7
100
AcDbSpline
210
0.0
220
0.0
230
1.0
 70
     8
 71
     3
 72
     8
 73
     4
 74
     0
 42
0.000000001
 43
0.0000001
 40
0.0
 40
0.0
 40
0.0
 40
0.0
 40
1.0
 40
1.0
 40
1.0
 40
1.0
 10
139.227015
 20
97.490211
 30
0.0
 10
139.213034
 20
96.540629
 30
0.0
 10
138.43927
 20
95.778174
 30
0.0
 10
137.489585
 20
95.778174
 30
0.0
  0
SPLINE
  5
259
330
1F
100
AcDbEntity
  8
WHEELS
 62
     7
100
AcDbSpline
210
0.0
220
0.0
230
1.0
 70
     8
 71
     3
 72
     8
 73
     4
 74
     0
 42
0.000000001
 43
0.0000001
 40
0.0
 40
0.0
 40
0.0
 40
0.0
 40
1.0
 40
1.0
 40
1.0
 40
1.0
 10
137.489585
 20
95.778174
 30
0.0
 10
136.5399
 20
95.778174
 30
0.0
 10
135.766136
 20
96.540629
 30
0.0
 10
135.752154
 20
97.490211
 30
0.0
  0
SPLINE
  5
25A
330
1F
100
AcDbEntity
  8
WHEELS
 62
     7
100
AcDbSpline
210
0.0
220
0.0
230
1.0
 70
     8
 71
     3
 72
     8
 73
     4
 74
     0
 42
0.000000001
 43
0.0000001
 40
0.0
 40
0.0
 40
0.0
 40
0.0
 40
1.0
 40
1.0
 40
1.0
 40
1.0
 10
135.752154
 20
97.490211
 30
0.0
 10
135.749936
 20
98.40351
 30
0.0
 10
136.455124
 20
99.162649
 30
0.0
 10
137.36611
 20
99.227644
 30
0.0
  0
LINE
  5
25B
330
1F
100
AcDbEntity
  8
WHEELS
 62
     7
100
AcDbLine
 10
137.36611
 20
99.227644
 30
0.0
 11
137.36611
 21
99.227644
 31
0.0
  0
SPLINE
  5
25C
330
1F
100
AcDbEntity
  8
WHEELS
 62
     7
100
AcDbSpline
210
0.0
220
0.0
230
1.0
 70
     8
 71
     3
 72
     8
 73
     4
 74
     0
 42
0.000000001
 43
0.0000001
 40
0.0
 40
0.0
 40
0.0
 40
0.0
 40
1.0
 40
1.0
 40
1.0
 40
1.0
 10
157.359793
 20
99.227644
 30
0.0
 10
157.841567
 20
99.261913
 30
0.0
 10
158.315867
 20
99.094112
 30
0.0
 10
158.668905
 20
98.764498
 30
0.0
  0
SPLINE
  5
25D
330
1F
100
AcDbEntity
  8
WHEELS
 62
     7
100
AcDbSpline
210
0.0
220
0.0
230
1.0
 70
     8
 71
     3
 72
     8
 73
     4
 74
     0
 42
0.000000001
 43
0.0000001
 40
0.0
 40
0.0
 40
0.0
 40
0.0
 40
1.0
 40
1.0
 40
1.0
 40
1.0
 10
158.668905
 20
98.764498
 30
0.0
 10
159.021942
 20
98.434884
 30
0.0
 10
159.221859
 20
97.973201
 30
0.0
 10
159.220693
 20
97.490211
 30
0.0
  0
SPLINE
  5
25E
330
1F
100
AcDbEntity
  8
WHEELS
 62
     7
100
AcDbSpline
210
0.0
220
0.0
230
1.0
 70
     8
 71
     3
 72
     8
 73
     4
 74
     0
 42
0.000000001
 43
0.0000001
 40
0.0
 40
0.0
 40
0.0
 40
0.0
 40
1.0
 40
1.0
 40
1.0
 40
1.0
 10
159.220693
 20
97.490211
 30
0.0
 10
159.206602
 20
96.540709
 30
0.0
 10
158.432871
 20
95.778376
 30
0.0
 10
157.483265
 20
95.778376
 30
0.0
  0
SPLINE
  5
25F
330
1F
100
AcDbEntity
  8
WHEELS
 62
     7
100
AcDbSpline
210
0.0
220
0.0
230
1.0
 70
     8
 71
     3
 72
     8
 73
     4
 74
     0
 42
0.000000001
 43
0.0000001
 40
0.0
 40
0.0
 40
0.0
 40
0.0
 40
1.0
 40
1.0
 40
1.0
 40
1.0
 10
157.483265
 20
95.778376
 30
0.0
 10
156.533659
 20
95.778376
 30
0.0
 10
155.759929
 20
96.540709
 30
0.0
 10
155.745838
 20
97.490211
 30
0.0
  0
SPLINE
  5
260
330
1F
100
AcDbEntity
  8
WHEELS
 62
     7
100
AcDbSpline
210
0.0
220
0.0
230
1.0
 70
     8
 71
     3
 72
     8
 73
     4
 74
     0
 42
0.000000001
 43
0.0000001
 40
0.0
 40
0.0
 40
0.0
 40
0.0
 40
1.0
 40
1.0
 40
1.0
 40
1.0
 10
155.745838
 20
97.490211
 30
0.0
 10
155.74362
 20
98.40351
 30
0.0
 10
156.448807
 20
99.162649
 30
0.0
 10
157.359793
 20
99.227644
 30
0.0
  0
LINE
  5
261
330
1F
100
AcDbEntity
  8
WHEELS
 62
     7
100
AcDbLine
 10
157.359793
 20
99.227644
 30
0.0
 11
157.359793
 21
99.227644
 31
0.0
  0
SPLINE
  5
262
330
1F
100
AcDbEntity
  8
WHEELS
 62
     7
100
AcDbSpline
210
0.0
220
0.0
230
1.0
 70
     8
 71
     3
 72
     8
 73
     4
 74
     0
 42
0.000000001
 43
0.0000001
 40
0.0
 40
0.0
 40
0.0
 40
0.0
 40
1.0
 40
1.0
 40
1.0
 40
1.0
 10
137.36611
 20
94.227016
 30
0.0
 10
137.847884
 20
94.261287
 30
0.0
 10
138.322186
 20
94.093487
 30
0.0
 10
138.675224
 20
93.763873
 30
0.0
  0
SPLINE
  5
263
330
1F
100
AcDbEntity
  8
WHEELS
 62
     7
100
AcDbSpline
210
0.0
220
0.0
230
1.0
 70
     8
 71
     3
 72
     8
 73
     4
 74
     0
 42
0.000000001
 43
0.0000001
 40
0.0
 40
0.0
 40
0.0
 40
0.0
 40
1.0
 40
1.0
 40
1.0
 40
1.0
 10
138.675224
 20
93.763873
 30
0.0
 10
139.028263
 20
93.43426
 30
0.0
 10
139.22818
 20
92.972576
 30
0.0
 10
139.227015
 20
92.489586
 30
0.0
  0
SPLINE
  5
264
330
1F
100
AcDbEntity
  8
WHEELS
 62
     7
100
AcDbSpline
210
0.0
220
0.0
230
1.0
 70
     8
 71
     3
 72
     8
 73
     4
 74
     0
 42
0.000000001
 43
0.0000001
 40
0.0
 40
0.0
 40
0.0
 40
0.0
 40
1.0
 40
1.0
 40
1.0
 40
1.0
 10
139.227015
 20
92.489586
 30
0.0
 10
139.213031
 20
91.540005
 30
0.0
 10
138.439268
 20
90.777553
 30
0.0
 10
137.489585
 20
90.777553
 30
0.0
  0
SPLINE
  5
265
330
1F
100
AcDbEntity
  8
WHEELS
 62
     7
100
AcDbSpline
210
0.0
220
0.0
230
1.0
 70
     8
 71
     3
 72
     8
 73
     4
 74
     0
 42
0.000000001
 43
0.0000001
 40
0.0
 40
0.0
 40
0.0
 40
0.0
 40
1.0
 40
1.0
 40
1.0
 40
1.0
 10
137.489585
 20
90.777553
 30
0.0
 10
136.539901
 20
90.777553
 30
0.0
 10
135.766138
 20
91.540005
 30
0.0
 10
135.752154
 20
92.489586
 30
0.0
  0
SPLINE
  5
266
330
1F
100
AcDbEntity
  8
WHEELS
 62
     7
100
AcDbSpline
210
0.0
220
0.0
230
1.0
 70
     8
 71
     3
 72
     8
 73
     4
 74
     0
 42
0.000000001
 43
0.0000001
 40
0.0
 40
0.0
 40
0.0
 40
0.0
 40
1.0
 40
1.0
 40
1.0
 40
1.0
 10
135.752154
 20
92.489586
 30
0.0
 10
135.749938
 20
93.402884
 30
0.0
 10
136.455125
 20
94.162021
 30
0.0
 10
137.36611
 20
94.227016
 30
0.0
  0
LINE
  5
267
330
1F
100
AcDbEntity
  8
WHEELS
 62
     7
100
AcDbLine
 10
137.36611
 20
94.227016
 30
0.0
 11
137.36611
 21
94.227016
 31
0.0
  0
SPLINE
  5
268
330
1F
100
AcDbEntity
  8
WHEELS
 62
     7
100
AcDbSpline
210
0.0
220
0.0
230
1.0
 70
     8
 71
     3
 72
     8
 73
     4
 74
     0
 42
0.000000001
 43
0.0000001
 40
0.0
 40
0.0
 40
0.0
 40
0.0
 40
1.0
 40
1.0
 40
1.0
 40
1.0
 10
157.359793
 20
94.227016
 30
0.0
 10
157.841567
 20
94.261285
 30
0.0
 10
158.315866
 20
94.093484
 30
0.0
 10
158.668904
 20
93.763871
 30
0.0
  0
SPLINE
  5
269
330
1F
100
AcDbEntity
  8
WHEELS
 62
     7
100
AcDbSpline
210
0.0
220
0.0
230
1.0
 70
     8
 71
     3
 72
     8
 73
     4
 74
     0
 42
0.000000001
 43
0.0000001
 40
0.0
 40
0.0
 40
0.0
 40
0.0
 40
1.0
 40
1.0
 40
1.0
 40
1.0
 10
158.668904
 20
93.763871
 30
0.0
 10
159.021941
 20
93.434257
 30
0.0
 10
159.221858
 20
92.972575
 30
0.0
 10
159.220693
 20
92.489586
 30
0.0
  0
SPLINE
  5
26A
330
1F
100
AcDbEntity
  8
WHEELS
 62
     7
100
AcDbSpline
210
0.0
220
0.0
230
1.0
 70
     8
 71
     3
 72
     8
 73
     4
 74
     0
 42
0.000000001
 43
0.0000001
 40
0.0
 40
0.0
 40
0.0
 40
0.0
 40
1.0
 40
1.0
 40
1.0
 40
1.0
 10
159.220693
 20
92.489586
 30
0.0
 10
159.206604
 20
91.540083
 30
0.0
 10
158.432873
 20
90.777747
 30
0.0
 10
157.483265
 20
90.777747
 30
0.0
  0
SPLINE
  5
26B
330
1F
100
AcDbEntity
  8
WHEELS
 62
     7
100
AcDbSpline
210
0.0
220
0.0
230
1.0
 70
     8
 71
     3
 72
     8
 73
     4
 74
     0
 42
0.000000001
 43
0.0000001
 40
0.0
 40
0.0
 40
0.0
 40
0.0
 40
1.0
 40
1.0
 40
1.0
 40
1.0
 10
157.483265
 20
90.777747
 30
0.0
 10
156.533658
 20
90.777747
 30
0.0
 10
155.759927
 20
91.540083
 30
0.0
 10
155.745838
 20
92.489586
 30
0.0
  0
SPLINE
  5
26C
330
1F
100
AcDbEntity
  8
WHEELS
 62
     7
100
AcDbSpline
210
0.0
220
0.0
230
1.0
 70
     8
 71
     3
 72
     8
 73
     4
 74
     0
 42
0.000000001
 43
0.0000001
 40
0.0
 40
0.0
 40
0.0
 40
0.0
 40
1.0
 40
1.0
 40
1.0
 40
1.0
 10
155.745838
 20
92.489586
 30
0.0
 10
155.743621
 20
93.402884
 30
0.0
 10
156.448808
 20
94.162021
 30
0.0
 10
157.359793
 20
94.227016
 30
0.0
  0
LINE
  5
26D
330
1F
100
AcDbEntity
  8
WHEELS
 62
     7
100
AcDbLine
 10
157.359793
 20
94.227016
 30
0.0
 11
157.359793
 21
94.227016
 31
0.0
  0
LINE
  5
1007C
330
1F
100
AcDbEntity
  8
BUMPER_PLATES
100
AcDbLine
 10
20.0
 20
170.916257
 30
0.0
 11
20.0
 21
168.016257
 31
0.0
  0
LINE
  5
1007D
330
1F
100
AcDbEntity
  8
BUMPER_PLATES
100
AcDbLine
 10
20.0
 20
168.016257
 30
0.0
 11
4.99118
 21
168.016257
 31
0.0
  0
LINE
  5
1007E
330
1F
100
AcDbEntity
  8
BUMPER_PLATES
100
AcDbLine
 10
4.99118
 20
168.016257
 30
0.0
 11
4.99118
 21
170.916257
 31
0.0
  0
LINE
  5
1007F
330
1F
100
AcDbEntity
  8
BUMPER_PLATES
100
AcDbLine
 10
62.432847
 20
168.016257
 30
0.0
 11
47.519167
 21
168.016257
 31
0.0
  0
LINE
  5
10080
330
1F
100
AcDbEntity
  8
BUMPER_PLATES
100
AcDbLine
 10
104.93375
 20
168.016257
 30
0.0
 11
90.020069
 21
168.016257
 31
0.0
  0
LINE
  5
10081
330
1F
100
AcDbEntity
  8
BUMPER_PLATES
100
AcDbLine
 10
20.0
 20
170.916257
 30
0.0
 11
4.99118
 21
170.916257
 31
0.0
  0
LINE
  5
10082
330
1F
100
AcDbEntity
  8
BUMPER_PLATES
100
AcDbLine
 10
62.527987
 20
170.916257
 30
0.0
 11
62.527987
 21
168.016257
 31
0.0
  0
LINE
  5
10083
330
1F
100
AcDbEntity
  8
BUMPER_PLATES
100
AcDbLine
 10
47.519167
 20
168.016257
 30
0.0
 11
47.519167
 21
170.916257
 31
0.0
  0
LINE
  5
10084
330
1F
100
AcDbEntity
  8
BUMPER_PLATES
100
AcDbLine
 10
62.527987
 20
170.916257
 30
0.0
 11
47.519167
 21
170.916257
 31
0.0
  0
LINE
  5
10085
330
1F
100
AcDbEntity
  8
BUMPER_PLATES
100
AcDbLine
 10
105.028889
 20
170.916257
 30
0.0
 11
105.028889
 21
168.016257
 31
0.0
  0
LINE
  5
10086
330
1F
100
AcDbEntity
  8
BUMPER_PLATES
100
AcDbLine
 10
90.020069
 20
168.016257
 30
0.0
 11
90.020069
 21
170.916257
 31
0.0
  0
LINE
  5
10087
330
1F
100
AcDbEntity
  8
BUMPER_PLATES
100
AcDbLine
 10
105.028889
 20
170.916257
 30
0.0
 11
90.020069
 21
170.916257
 31
0.0
  0
ENDSEC
  0
SECTION
  2
OBJECTS
  0
DICTIONARY
  5
C
330
0
100
AcDbDictionary
  3
ACAD_DETAILVIEWSTYLE
350
10092
  3
ACAD_GROUP
350
D
  3
ACAD_IMAGE_VARS
350
10047
  3
ACAD_MLINESTYLE
350
17
  3
ACAD_SCALELIST
350
FFFF
  3
ACAD_SECTIONVIEWSTYLE
350
10093
  3
ACDBVARIABLEDICTIONARY
350
1008A
  3
APPDATA
350
10045
  3
DWGPROPS
350
10095
  0
DICTIONARY
  5
10077
330
2
100
AcDbDictionary
280
     1
  3
ACAD_LAYERSTATES
360
10078
  0
DICTIONARY
  5
10092
102
{ACAD_REACTORS
330
C
102
}
330
C
100
AcDbDictionary
  0
DICTIONARY
  5
D
330
C
100
AcDbDictionary
  0
RASTERVARIABLES
  5
10047
102
{ACAD_REACTORS
330
C
102
}
330
C
100
AcDbRasterVariables
 90
        0
 70
     1
 71
     1
 72
     0
  0
DICTIONARY
  5
17
330
C
100
AcDbDictionary
  3
STANDARD
350
10094
  0
DICTIONARY
  5
FFFF
102
{ACAD_REACTORS
330
C
102
}
330
C
100
AcDbDictionary
  0
DICTIONARY
  5
10093
102
{ACAD_REACTORS
330
C
102
}
330
C
100
AcDbDictionary
  0
DICTIONARY
  5
1008A
102
{ACAD_REACTORS
330
C
102
}
330
C
100
AcDbDictionary
  0
DICTIONARY
  5
10045
102
{ACAD_REACTORS
330
C
102
}
330
C
100
AcDbDictionary
  0
XRECORD
  5
10095
102
{ACAD_REACTORS
330
C
102
}
330
C
100
AcDbXrecord
  1
DWGPROPS COOKIE
  2

  3

  4

  6

  7

  8
bdgeorge
  9

300
=
301
=
302
=
303
=
304
=
305
=
306
=
307
=
308
=
309
=
 40
0.0
 41
0.0
 42
2457220.111087963
  1

 90
        0
  0
DICTIONARY
  5
10078
102
{ACAD_REACTORS
330
10077
102
}
330
10077
100
AcDbDictionary
  0
MLINESTYLE
  5
10094
102
{ACAD_REACTORS
330
17
102
}
330
17
100
AcDbMlineStyle
  2
Standard
 70
     0
  3

 62
   256
 51
90.0
 52
90.0
 71
     2
 49
0.5
 62
   256
  6
BYLAYER
 49
-0.5
 62
   256
  6
BYLAYER
  0
ENDSEC
  0
EOF
